<?xml version="1.0" standalone="no"?>
<!DOCTYPE svg PUBLIC "-//W3C//DTD SVG 1.1//EN" "http://www.w3.org/Graphics/SVG/1.1/DTD/svg11.dtd" >
<svg xmlns="http://www.w3.org/2000/svg">
<metadata>
Created by FontForge 20120731 at Wed Apr 19 11:29:05 2017
 By admin
</metadata>
<defs>
<font id="iconfont" horiz-adv-x="1024" >
  <font-face 
    font-family="iconfont"
    font-weight="500"
    font-stretch="normal"
    units-per-em="1024"
    panose-1="2 0 6 3 0 0 0 0 0 0"
    ascent="896"
    descent="-128"
    x-height="792"
    bbox="0 -224 1933 896.284"
    underline-thickness="0"
    underline-position="0"
    unicode-range="U+0078-F0099"
  />
<missing-glyph 
 />
    <glyph glyph-name=".notdef" 
 />
    <glyph glyph-name=".null" horiz-adv-x="0" 
 />
    <glyph glyph-name="nonmarkingreturn" horiz-adv-x="341" 
 />
    <glyph glyph-name="x" unicode="x" horiz-adv-x="1001" 
d="M281 543q-27 -1 -53 -1h-83q-18 0 -36.5 -6t-32.5 -18.5t-23 -32t-9 -45.5v-76h912v41q0 16 -0.5 30t-0.5 18q0 13 -5 29t-17 29.5t-31.5 22.5t-49.5 9h-133v-97h-438v97zM955 310v-52q0 -23 0.5 -52t0.5 -58t-10.5 -47.5t-26 -30t-33 -16t-31.5 -4.5q-14 -1 -29.5 -0.5
t-29.5 0.5h-32l-45 128h-439l-44 -128h-29h-34q-20 0 -45 1q-25 0 -41 9.5t-25.5 23t-13.5 29.5t-4 30v167h911zM163 247q-12 0 -21 -8.5t-9 -21.5t9 -21.5t21 -8.5q13 0 22 8.5t9 21.5t-9 21.5t-22 8.5zM316 123q-8 -26 -14 -48q-5 -19 -10.5 -37t-7.5 -25t-3 -15t1 -14.5
t9.5 -10.5t21.5 -4h37h67h81h80h64h36q23 0 34 12t2 38q-5 13 -9.5 30.5t-9.5 34.5q-5 19 -11 39h-368zM336 498v228q0 11 2.5 23t10 21.5t20.5 15.5t34 6h188q31 0 51.5 -14.5t20.5 -52.5v-227h-327z" />
    <glyph glyph-name="jia" unicode="&#xe619;" 
d="M64 331h895v-47h-895v47zM488 755h47v-895h-47v895z" />
    <glyph glyph-name="map" unicode="&#xe637;" 
d="M903 640h43q6 -11 18 -35q39 23 60 35v-35h-8v-52q-16 -2 -35 -9q9 -23 9 -61q-17 8 -18 9q-7 -6 -4.5 -10t-1.5 -8t-20 -9v-17h-26q-2 -4 -12 -16.5t-14 -27.5q-14 -2 -23.5 -7.5t-19.5 -14t-18 -13.5v27h9v26h-17q-7 -27 -35 -53h-17q-8 -7 7 -8h1l5 -5l2 -2q4 0 11 -2
v-17h17q3 5 9 17q21 -4 43 -9v-17h-26q-5 -8 -11.5 -15t-9.5 -14t-5 -24q16 -8 23.5 -19.5t11.5 -32.5h17q-3 -8 -8 -26h8v-9h-8v-9l4.5 -3.5t8.5 -7.5t6.5 -12.5t-2.5 -19.5q-12 -6 -17 -9v-26h-9q-3 -4 -4 -7t-2 -8t-1.5 -7t-1 -10.5t-0.5 -11.5h-17v-17h-18
q-4 -20 -13.5 -29.5t-29.5 -14.5v-9h-35v-17q-8 4 -6 7t-2 10h-9v-17q-4 -4 -14 -7t-18.5 -4.5t-21 -3.5t-16.5 -3v-8q9 -8 12 -14t3.5 -9t-2.5 -13t-4 -17q-8 -1 -22.5 -4t-20.5 -5v35q3 1 8 3t9.5 3.5t8.5 2.5q-5 14 -9 26q-27 4 -61 9v26q-16 3 -30 3t-35 -1.5t-39 -1.5
v-35h-9q-7 11 -10.5 13.5t-7.5 1t-16 3.5q-5 8 -7 10t-11 7v9h9q0 1 -2 6.5t-4 13.5t-3 15h-26q1 8 2 13t3 9.5t2.5 6t4.5 7t6 8.5h8q4 15 3 22t-6 21t-5 18l-5 -5l-2 -2q0 -4 -2 -11q-12 3 -22 9t-21 9q-19 -23 -61 -27q-3 6 -7 11t-6 10t-5 14q-29 6 -43 9v-17q-2 0 -6 2
q-9 2 -10 4t7 11q-22 3 -60 9q-2 3 -5 8.5t-4 8.5q-6 3 -17 9q-6 8 -12 19.5t-9 16t-13 9.5t-27 7q-3 11 -14 31t-12 48q5 -3 17 -9v53h-9q6 11 9 17h-9q-6 8 -14 13t-9 11t-3 29h-17v17q3 -2 9 -4.5t8 -4.5v26q-11 8 -12 9.5t-5 17.5q6 3 15 9t17 10t20 7v-18q25 5 87 18
q3 11 7 19t5.5 10.5t1 10t-4.5 21.5h26v9q3 -2 8.5 -5t8.5 -4v17q3 2 9 5l8 4v9q2 3 3 5h1l5 4q8 -12 11 -13.5t24 -4.5v26h8q8 9 14 11.5t21 6.5q5 -18 22.5 -38.5t21.5 -48.5l-5 -5q-2 -1 -2 -2q0 -4 -2 -11q34 -6 53 -22t25 -48q13 -1 39 -4t39 -5v-8h18v-9q21 -4 43 -9
v-8l26 8v9h61q11 18 17 26h18q1 2 -2.5 7.5t-6 13.5t-0.5 14h9v9q12 -5 20.5 -5.5t13.5 1.5t14.5 6t20.5 7v17q26 4 52 9q-1 4 -4 13t-5 13q-10 -1 -20 -2.5t-14 -2.5t-8.5 0t-9.5 5h-8q3 15 8 44h35q6 18 9 26h8v17h9q3 5 1.5 11.5t-2 9.5t-4 8t-4.5 6h9q10 13 24.5 15.5
t45.5 2.5q5 -10 15 -23.5t17 -26.5t11 -29zM877 64l17 -9q-2 -9 -5.5 -25t-6.5 -29t-5 -24h-9q-3 6 -7 12t-5.5 8.5t-2.5 10t-2 21.5q12 10 26 35z" />
    <glyph glyph-name="iconyezi" unicode="&#xe601;" 
d="M262 219q-14 -3 -53 -11.5t-59.5 -14t-48 -18t-45.5 -29.5q12 -30 40 -46q17 17 56.5 48t45.5 20q26 -51 79.5 -82t113.5 -36.5t120.5 7.5t102.5 45q34 25 69.5 66.5t65 79.5t63.5 75.5t79 64t97 34.5q-37 10 -108.5 31.5t-115 34t-109.5 25t-114.5 13.5t-107 -9.5
t-109.5 -35.5q-41 -20 -79.5 -65t-53.5 -97t21 -93q106 31 161.5 64.5t102.5 108.5q-4 -20 -20 -56t-20 -51l66 22t70.5 22.5t64.5 14t76 4.5q-60 -29 -188 -68.5t-186 -66.5q64 -33 95 -70q-46 12 -172 69z" />
    <glyph glyph-name="shoucang" unicode="&#xe6fa;" 
d="M886 705l1 -34l-755 -1v35v0q0 15 10.5 25.5t25.5 10.5h682q15 0 25.5 -10.5t10.5 -25.5v0zM148 630h727l138 -148q0 -3 -0.5 -8.5t-4.5 -20.5t-11.5 -27t-25 -24t-42.5 -17h-16.5t-21 0.5t-20 6t-22 15t-19 29t-17.5 46.5q0 -4 -1 -11t-7 -24t-15 -29.5t-28 -23
t-44 -9.5q-3 -1 -8.5 -1.5t-21 2.5t-28.5 11.5t-27.5 29.5t-21.5 53q0 -4 -0.5 -10.5t-6 -23t-15 -29.5t-30.5 -24t-50 -12q-3 0 -8.5 0.5t-20 5.5t-26.5 14.5t-24.5 31t-18.5 50.5q0 -4 -0.5 -10.5t-5.5 -23.5t-14 -30t-30 -25t-50 -13q-4 0 -10 1t-21.5 6.5t-28 15t-24 29
t-13.5 46.5q-1 -5 -2.5 -13t-10.5 -27t-21.5 -32.5t-38 -21t-57.5 -1.5l-7.5 2.5t-16.5 8.5t-21.5 16.5t-18 28.5t-9.5 42zM133 313l1 -426q0 -3 2 -8t10 -12.5t18 -7.5l695 1q3 0 8.5 1.5t13.5 9t8 19.5v425q-5 0 -13 1t-26 9.5t-29 24.5v-226h-618v221q-3 -3 -8 -7.5
t-23 -13t-39 -11.5z" />
    <glyph glyph-name="zaixianzixun" unicode="&#xe604;" 
d="M742 370q0 -75 -48 -138.5t-130 -100.5t-180 -37q-91 0 -170 34q-85 35 -136 100t-51 142q0 75 47.5 138.5t130 100t180 36.5t179.5 -37t130 -100t48 -138zM119 23q6 8 14 21.5t20.5 49t11.5 63.5q9 -6 25.5 -14.5t59.5 -24t77 -16.5l-9 -8t-27.5 -20t-42.5 -23.5
t-58.5 -19.5t-70.5 -8zM1011 280q0 107 -93 185.5t-229 88.5q53 -38 82.5 -90t29.5 -110q0 -74 -48 -137.5t-130.5 -100.5t-179.5 -37q-8 0 -38 3q104 -77 248 -77q28 0 62 4q10 -9 24 -19t40.5 -24.5t63 -23.5t75.5 -8q-5 7 -12.5 20t-20 47.5t-12.5 61.5q64 39 101 95.5
t37 121.5z" />
    <glyph glyph-name="leaf-line" unicode="&#xe65e;" 
d="M503 736v-1h-10q-116 0 -214.5 -57t-156.5 -156t-58 -215v-18v0v-448h457v1h9q116 0 215 57.5t156.5 156t57.5 214.5v10h1v456h-457zM848 270q0 -86 -42.5 -159t-116 -116t-159.5 -43h-9v1h-345v344v0v10q0 86 42.5 159.5t115.5 116t159 42.5h10v0h345v-345v0v-10z
M686 539q-2 0 -5 -1q-16 -4 -36 -11.5t-60 -25.5t-87.5 -51.5t-90.5 -76.5v61q0 18 -13 30.5t-30 12.5h-1q-18 0 -31 -12.5t-13 -30.5v-152q0 -7 2 -14q-41 -62 -71 -134q-4 -11 -6 -16v-3q-3 -8 -2 -19t4 -21t16.5 -16.5t36.5 -6.5q10 1 24 18t22 32q22 43 46 81
q10 -6 23 -6h213q19 0 32.5 13.5t13.5 32t-13.5 32t-32.5 13.5h-177q91 113 214 165q75 31 84 61q8 27 -4.5 39.5t-57.5 5.5z" />
    <glyph glyph-name="Online_consultation" unicode="&#xe62e;" 
d="M838 137v469q0 30 -21.5 51t-51.5 21h-685q-30 0 -51 -21t-21 -51v-469q0 -30 21 -51t51 -21h72v-181l180 181h433q30 0 51.5 21t21.5 51zM303 137l-79 -79v79h-144v469h685v-469h-462zM242.5 426q-22.5 0 -38.5 -16t-16 -38.5t16 -38.5t38.5 -16t38 16t15.5 38.5
t-15.5 38.5t-38 16zM422.5 426q-22.5 0 -38 -16t-15.5 -38.5t15.5 -38.5t38 -16t38.5 16t16 38.5t-16 38.5t-38.5 16zM603.5 426q-22.5 0 -38.5 -16t-16 -38.5t16 -38.5t38.5 -16t38 16t15.5 38.5t-15.5 38.5t-38 16zM946 570h-72v-72h72v-469h-144v-79l-79 79h-354v-73h324
l181 -180v180h72q30 0 51 21.5t21 51.5v469q0 30 -21 51t-51 21z" />
    <glyph glyph-name="elephant" unicode="&#xe649;" 
d="M152 315q2 -11 3 -21q-1 0 -4 -1q-61 -24 -102 -1l-5 3l5 -1q20 -4 38 -3h1v0q34 0 64 24v0zM248 457q0 14 -3 31q-3 12 -0.5 21.5t14.5 16.5q8 4 18 7t24 6t19 4q0 -2 -6 -5q-5 -3 -21 -7.5t-28 -10.5t-14 -14q-1 -8 -0.5 -24.5t-2.5 -24.5v0zM372 583q11 -7 8 -25
q-2 -14 -1 -19t7 -9q8 -6 12 -14q4 -9 4 -25q-4 0 -5.5 3.5t-1.5 9.5t-2 10q-3 6 -10 11q-8 6 -10 13q-1 6 2 21q1 7 0.5 9.5t-2 6.5t-1.5 8v0zM270 476q2 8 5 19q2 5 7.5 6.5t10.5 0.5l5 -1l8 8l-5 -13q5 -8 -3 -12q-3 -3 -8.5 -4t-9.5 -1l-4 -1l-6 -2v0zM162 257
q-40 -15 -111 -22h-4l2 -1h2q65 -11 125 10q23 10 43.5 32.5t31.5 48.5q18 39 30 44q12 4 15.5 2t2.5 -8l47 25l6 3l1 -5q55 29 69 86q1 5 6.5 4t4.5 -6q-16 -63 -76 -94q12 -34 33 -71q2 -4 -8 -12q-122 -102 -94 -245l-1 -4q-31 -49 -24 -56q81 -11 103 12q6 6 10 13t3 13
q0 5 -3 8q-1 1 -2 1h-1v0v0q-8 6 -4 44q5 36 11 48v0h1q6 10 13 16q-2 56 2 98q1 8 6 9q4 1 5 -5v-3q-4 -41 -3 -94h1v-8v-3q0 -13 1 -19h-1l1 -56v0l-5 -84v-5h-5q-16 0 -27 -26q-9 -23 -9 -29q0 -3 6 -4v0v0h10q8 0 18 1q84 4 87 20q2 17 -5 44l-1 2q4 120 15 172
q10 48 46 93l1 1q6 14 6 27v0q0 23 2 37q3 17 8 27q5 8 9 4q3 -4 0 -11q-4 -8 -6 -21q-2 -14 -2 -36v0q0 -13 -6 -28q58 -11 62 -10q1 1 2 1q16 53 71 109q3 4 6 3t3 -4.5t-2 -6.5q-95 -96 -65 -165v0v0v0q3 -6 11 -24v0q42 -93 41 -114v0q0 -5 -0.5 -11t-1.5 -13
q-6 -42 -20 -61q-3 -5 -10 -13q-11 -12 -8 -26q0 -4 7.5 -5.5t18.5 -1.5t22.5 1t23 3t17 3t7.5 1v0q24 4 23 29v0l-3 36q-2 30 -2 43q1 23 18 115l1 4l2 1q4 22 32 46q5 4 12 10q20 16 30 25.5t20 26t12 35.5q4 32 6 52q0 7 3 9.5t5.5 0t2.5 -10.5q-2 -19 -6 -53
q-3 -21 -13.5 -39t-21 -27.5t-31.5 -27.5q-10 -8 -12 -9q-29 -24 -29 -44q10 -10 26 -34q10 -14 24 -33q20 -26 25 -43q8 -22 9 -37q1 -18 -6 -27v0q-3 -2 -12 -10q-27 -25 -26 -31q2 -7 106 -2q25 14 18 31q-8 19 -9 43v8v0q0 4 -0.5 9t-1.5 11q-5 27 -19 70q-11 35 4 100
h10q13 -36 22 -72v0v0v0q3 -12 6 -40q5 -51 15 -74q14 -28 50 -36q-6 41 -34 74q-18 22 -20 40v0v0q-2 15 -14 63q-18 69 -18 92v0q0 191 -13 215v0q-3 6 -10 17q-9 14 -19 29q-18 26 -38 49l3 -153v-4l-4 -1q-3 1 -8 -0.5t-25.5 3.5t-44.5 17q-44 22 -240 22h-6v5v0
q0 3 4 27q4 21 -12 207q-24 1 -51 2q39 -58 44 -64q6 -8 8 -14q2 -9 0 -21v0v0q-2 -11 -28 -53q-16 -27 -17 -31q-7 -26 -13 -42l-2 -8l-6 6q-3 2 -8 6.5t-12.5 16t-8.5 21.5q-2 15 -2 41q0 8 4.5 8.5t5.5 -6.5q1 -1 1 -3q0 -25 1 -39q2 -14 19 -32q8 25 10 33q2 6 19 35
q25 40 26 49v0v0q2 10 0 16q-1 4 -5 10q-14 18 -49 72h1q-13 0 -23 1l-17 -12q-33 -20 -49 -37q-17 -18 -33 -12q-19 -17 -42 -26q-25 -9 -38 6q-15 -8 -32 -11t-34 5q-7 -23 -5 -34v-2l-1 -2q-24 -28 -16.5 -67t-0.5 -67q0 -2 -1 -4v0q0 -1 -1 -4q31 13 60 -9q-37 15 -62 3
v-1q-4 -12 -6 -20q32 18 62 -6q-1 1 -8.5 3.5t-12 3.5t-12.5 2t-15.5 -1.5t-14.5 -8.5v0q-1 -10 -1 -18v0q1 -2 1 -4q31 21 61 -4q-2 0 -11.5 3.5t-15 4.5t-15 -0.5t-18.5 -8.5l-1 1v-3q1 -7 2 -13q4 -30 9 -58q19 9 32.5 22t19.5 23.5t16 30.5v0v0v0v0q2 5 7 2.5t2 -6.5v-1
q-29 -62 -85 -86v0zM419 673l-4 -3q-34 -20 -51 -39q-13 -13 -23 -8l-4 3l-3 -4v0q-16 -17 -41 -26q-10 -4 -16.5 -2t-8.5 4t-2 3l-3 5l-5 -3q-12 -8 -33 -11q-14 -3 -29 4q9 23 24 49q4 6 7 11q25 32 64 40q30 6 41 -1v0q15 -11 36 -17q5 -2 10 -3q9 -2 18 -2v0v0h23v0z
M581 665l-5 -1l8 -181l1 -3h2q14 0 43 -1t82.5 -8.5t74.5 -19.5q47 -28 43 -17q0 2 -3 5l-3 143q11 -11 22 -24l3 -160q-23 -1 -66 20q-51 25 -239 23q1 7 3 19q3 22 -12 209q35 -2 65 -5q28 -2 53 -5q27 -3 50 -6v0q55 -9 115 -66l4 -149l1 -2l-33 20q-46 27 -200 29
l-9 180v0zM178 233q33 14 55 37v-22v0v0q0 -38 -51 -95q-9 -11 -20 -21q-11 -11 -24 -21v0v0v0q-28 -24 -61 -26q-11 -1 -15.5 -2.5t-9 -10t-5.5 -25.5q-1 -9 -23 -6v0h-4l-2 -3q-7 -10 -13 -7q-2 15 2 27t17.5 23t24 17.5t31.5 17.5q25 13 38 21t30.5 22.5t24 33t5.5 40.5
v0z" />
    <glyph glyph-name="164duihuanquan" unicode="&#xe7f9;" 
d="M723 191h21v-43h-21v43zM723 254h21v-42h-21v42zM723 317h21v-42h-21v42zM723 381h21v-43h-21v43zM723 444h21v-42h-21v42zM512 444q-49 0 -88 -29.5t-53 -76.5h44q13 29 39 46.5t58 17.5t58 -17.5t39 -46.5h-44q-5 0 -8 -3t-3 -7v-21q0 -5 3 -8t8 -3h84q5 0 8 3t3 8v5
l-7 26q-14 47 -53 76.5t-88 29.5zM512 191q-32 0 -58 17.5t-39 45.5h44q5 0 8 3t3 8v21q0 4 -3 7t-8 3h-84q-5 0 -8 -3t-3 -7v-5l7 -27q14 -46 53 -76t88 -30t88 30t53 76h-44q-13 -28 -39 -45.5t-58 -17.5zM280 191h21v-43h-21v43zM280 254h21v-42h-21v42zM280 317h21v-42
h-21v42zM280 381h21v-43h-21v43zM280 444h21v-42h-21v42zM945 391h16v146q0 32 -23 54.5t-56 22.5h-741q-32 0 -55 -22.5t-23 -54.5v-146h15q37 0 63 -26.5t26 -64t-26 -64.5t-63 -27h-15v-145q0 -32 23 -54.5t55 -22.5h741q33 0 56 22.5t23 54.5v145h-16q-37 0 -63 27
t-26 64.5t26 64t63 26.5zM826 300.5q0 -46.5 30 -81t74 -40.5v-115q0 -19 -14 -32.5t-34 -13.5h-741q-19 0 -33 13.5t-14 32.5v115q44 6 74 40.5t30 81t-30 80.5t-74 40v116q0 19 14 32.5t33 13.5h741q20 0 34 -13.5t14 -32.5v-116q-44 -6 -74 -40t-30 -80.5z" />
    <glyph glyph-name="zijia" unicode="&#xe61e;" horiz-adv-x="2509" 
d="M934 53zM832 52.5q0 42.5 30 72.5t72.5 30t72.5 -30t30 -72.5t-30 -72.5t-72.5 -30t-72.5 30t-30 72.5zM1549 53zM1446 52.5q0 42.5 30 72.5t72.5 30t72.5 -30t30 -72.5t-30 -72.5t-72.5 -30t-72.5 30t-30 72.5zM1933 125l-26 98h-51q-11 0 -24.5 12t-13.5 22v26
q0 17 38 17h32l-6 26q0 21 -15 36t-37 15h-187l-69 153q0 32 -22.5 54.5t-53.5 22.5h-538q-32 0 -54.5 -22.5t-22.5 -54.5l-51 -153h-128q-21 0 -36 -15t-15 -36l-13 -52h1024v-25h-1030l-32 -124v-6v0q3 -20 17.5 -34.5t33.5 -14.5h156q16 102 125.5 102t125.5 -102h363
q16 102 125.5 102t125.5 -102h208q19 0 33.5 14.5t16.5 34.5v1q0 1 0.5 2t0.5 3zM1203 402h-269l52 154h217v-154zM1229 402v154h243l38 -77h-76v-51h102l13 -26h-320z" />
    <glyph glyph-name="shoucang1" unicode="&#xe639;" 
d="M669 570q61 0 106.5 -39t53.5 -98q11 -81 -46 -141q-86 -88 -256 -259q-4 -3 -9 -3t-8 3q-134 134 -248 249q-45 46 -54 100q-9 50 12.5 95.5t64.5 70.5q38 22 81 22q64 0 111 -44q18 -17 38 -17q16 0 30 8q7 5 20 15q25 16 35 22q33 16 69 16zM669 624q-48 0 -92 -23
q-10 -4 -19.5 -10.5t-22 -15.5t-19.5 -13v0q-2 1 -3 2q-63 59 -147 59q-57 0 -107 -29q-58 -33 -86.5 -94t-16.5 -127q12 -71 69 -128q115 -116 247 -249q19 -19 46 -19t46 19q170 170 257 259q75 78 60 185q-11 80 -72.5 132t-139.5 52v0z" />
    <glyph glyph-name="haitun" unicode="&#xf0032;" 
d="M669 447q14 -19 52 -28l-7 -3q-5 -2 -8 -3q-76 -24 -91 -30q-3 -2 -6 -3q-9 -4 -8 -15q1 -35 -12 -61q-13 -28 -45 -52q-25 -20 -52 -23q-8 -1 -19 0q-4 0 -6 2q-1 2 2 6q2 3 8.5 10.5t9.5 11.5q11 14 9 32q-2 17 -21 17q-6 -1 -14 -5q-53 -29 -84 -90q-27 -51 -25 -105
q4 -101 82 -162q61 -48 142 -47l6 1q-74 18 -114.5 68t-45.5 110q-3 36 6.5 73t22.5 43q-1 -6 -1 -7q-16 -50 -10 -95q6 -49 34.5 -83.5t74.5 -46.5q56 -14 105.5 9.5t72.5 75.5q13 30 12 65q-1 21 12 36q20 22 49 16q27 -5 36 -32q4 -15 2 -44q-3 -46 -26 -86
q-34 -59 -95 -87q-48 -22 -83 -30q-57 -12 -115 -6q-121 13 -206 95q-80 75 -101 182q-11 53 -4 110q9 65 39 123q6 12 4 23q-3 19 -26 24q-14 2 -39 -6q-20 -7 -23 -8q-5 -1 -7 0.5t-1 6.5q1 18 14 35q27 35 78 48q47 12 97 -1q5 -2 10 3q48 48 104 80q58 33 113 41
q51 7 89 -6q45 -14 65 -46q15 -23 15 -49q0 -7 8 -8q3 0 13 -0.5t16 -1.5q21 -2 30 -14q9 -11 8 -24.5t-11 -24.5q-22 -23 -61 -26q-37 -3 -68 11q-1 1 -3 1h-3zM632.5 560q-19.5 0 -33.5 -14t-14 -33.5t14 -33.5t33.5 -14t33.5 14t14 34q0 19 -14 33t-33.5 14zM778 187
q-26 -12 -27 -13q-28 -17 -31 -51q0 -5 -0.5 -16t-0.5 -17q-2 -27 -24 -58q-32 -47 -94 -53q-39 -5 -68 9q-3 1 -5 3h32q62 5 97 53q34 46 25 110l-3 24q-1 32 26.5 45.5t51.5 -2.5q16 -11 21 -34zM632.5 560q19.5 0 33.5 -14t14 -33q0 -20 -14 -34t-33.5 -14t-33.5 14
t-14 33.5t14 33.5t33.5 14zM645 545q-9 6 -22.5 1.5t-19.5 -14.5q-8 -13 -5 -27t15 -22q11 -7 24.5 -5.5t18.5 9.5q-34 -3 -38 26q-1 12 6.5 21t20.5 11zM643.5 519.5q7.5 0.5 7.5 7.5q0 8 -8 8q-7 -1 -7 -8.5t7.5 -7zM645 545q-13 -2 -20.5 -11t-6.5 -21q4 -29 38 -26
q-5 -8 -18.5 -9.5t-24.5 5.5q-12 8 -15 22t5 27q6 10 19.5 14.5t22.5 -1.5zM643.5 519.5q-7.5 -0.5 -7.5 7t7 8.5q8 0 8 -8q0 -7 -7.5 -7.5z" />
    <glyph glyph-name="dingdan" unicode="&#xe622;" 
d="M844 752h-61q-13 0 -24 -7.5t-11 -19.5t11.5 -22.5t23.5 -10.5h61q26 0 43 -17t17 -43v-693q0 -27 -17 -43.5t-43 -16.5h-648q-29 0 -52.5 17t-23.5 43v693q0 26 17 43t43 17h76q23 0 23 33q0 27 -23 27h-76q-60 0 -90 -33.5t-30 -88.5v-685q0 -57 33.5 -91.5t93.5 -34.5
h650q62 0 94.5 32t32.5 94v685q0 54 -32 88t-88 34zM256 480.5q0 -12.5 9 -21.5t22 -9h452q12 0 21 9t9 21.5t-9 21.5t-21 9h-452q-13 0 -22 -9t-9 -21.5zM737 345h-450q-13 0 -22 -9t-9 -21.5t9 -22t22 -9.5h452q12 0 21 9.5t9 21.5q-1 13 -10 22t-22 9zM737 164h-450
q-13 0 -22 -9t-9 -21.5t9 -21.5t22 -9h452q12 0 21 9t9 22q-1 13 -10 21.5t-22 8.5zM408 676h210q18 0 31.5 16t13.5 37t-13.5 36.5t-32.5 15.5h-209q-19 0 -32.5 -15.5t-13.5 -36.5t13.5 -37t32.5 -16z" />
    <glyph glyph-name="bourn" unicode="&#xe642;" 
d="M514.5 794q-102.5 0 -196 -40t-161 -108t-107.5 -161.5t-40 -196t40 -196t107.5 -161t161 -108t196 -40.5t196.5 40.5t161.5 108t107.5 161t40 196t-40 196t-107.5 161.5t-161.5 108t-196.5 40zM696 258q-35 4 -136.5 28.5t-136.5 29.5q-5 0 -61 -9v-325q0 -15 -10.5 -25
t-25.5 -10t-26 10t-11 25v613q0 15 11 25t26 10t25.5 -10t10.5 -25v-6q69 -30 95 -37q19 -5 45.5 -14.5t47.5 -14.5t46 -4q16 0 65 10t63 11q6 1 7 -8t-3 -25t-9 -33.5t-10 -38.5t-6 -36q-2 -17 -0.5 -33t7 -30.5t8.5 -21.5t11 -21t9 -15q7 -13 -7 -17.5t-35 -2.5z" />
    <glyph glyph-name="huaxue" unicode="&#xe608;" 
d="M285 678q-12 -30 0 -60t42 -42.5t60 -0.5t42.5 42t0.5 60t-42 42.5t-60 0.5t-43 -42v0zM402 546q5 -2 -4 -4l-11 -3q-14 -23 -17 -91q-1 -16 -1 -35q0 -22 -9 -27q-4 -3 -26 -11.5t-49 -19t-36 -14.5l2.5 -8.5t5.5 -17.5l3 -8q15 4 32.5 8.5t39 10t33.5 8.5q29 7 44 14
q6 3 10 7t7.5 11t4 9t3.5 12q2 4 5.5 18t5.5 20q4 12 11.5 34t10.5 33l5 13l-70 41v0zM457 507q4 -1 -5 -3l-11 -3q-14 -24 -17 -91q-1 -17 -1 -35q0 -22 -8 -28q-5 -2 -27 -11t-49 -19t-36 -14l3 -8.5t6 -17.5l2 -8q15 4 33 8.5t39 9.5t33 8q29 8 44 15q6 3 10.5 6.5
t7.5 10.5t3.5 9t3.5 13q2 4 5.5 17.5t5.5 20.5q4 11 11.5 33t11.5 33q4 13 4 14l-69 40v0zM443 129q-3 18 2 36t17.5 43.5t16.5 33.5q7 19 8 35q0 15 -6 33t-11 27.5t-20 32.5t-18 28q-4 7 -15.5 24.5t-15.5 24.5t-10 21.5t-9 30.5q-6 26 6 43q20 30 64 18q50 -14 92 -80
q10 -14 27 -46q3 -4 15 -24.5t15.5 -29l10.5 -25.5t8.5 -31t-0.5 -29q-4 -35 -39 -84q-2 -3 -10 -13.5t-12.5 -17t-9.5 -16t-7 -17.5q-3 -5 -0.5 -12.5t3 -11t5.5 -10t7.5 -9.5t8 -9.5t7.5 -8.5q4 -5 23 -27.5t29 -34.5q28 -33 37 -43l-44 -24q-2 2 -20.5 15.5t-41 30.5
t-33.5 26q-2 2 -10.5 9t-11.5 9.5t-10.5 9t-11.5 10t-9.5 10t-9 11.5t-7.5 11.5t-6 13.5q-3 8 -4 16v0zM259 -106v0q-3 7 -0.5 13.5t8.5 9.5v0q7 3 13.5 1t9.5 -9v0h1q0 -1 1 -2v0l7 -7v0q14 -11 38 -11v0q17 0 38 6v0l533 177q6 2 12.5 -1t9.5 -10v0q2 -7 -1.5 -13.5
t-9.5 -8.5v0l-534 -178q-26 -7 -48 -7v0v0q-25 0 -44.5 10t-26 18t-7.5 12v0v0v0zM852 236l-506 46q-8 1 -8 9v0q1 9 10 8v0l505 -46q9 -1 8 -9v0q-1 -8 -8 -8v0h-1v0v0zM803 213v62q0 8 9 8v0q8 0 8 -8v0v-62q0 -9 -8 -9v0q-9 0 -9 9v0v0zM803 213z" />
    <glyph glyph-name="liulanlishi" unicode="&#xe623;" 
d="M931 533v-698q0 -33 -13 -40t-57 -7h-489q-40 0 -54.5 14.5t-14.5 55.5v442h46v-442q0 -18 3 -20.5t20 -2.5h489q16 0 19.5 3t3.5 20v675q0 10 -6.5 16.5t-16.5 6.5h-256v47h256q41 0 55.5 -15t14.5 -55zM326 347q-96 0 -164.5 68t-68.5 164t68.5 164.5t164.5 68.5
t164.5 -68.5t68.5 -164.5t-68.5 -164t-164.5 -68zM325.5 393q75.5 0 131 55.5t55.5 131t-55.5 130.5t-131 55t-130.5 -55t-55 -130.5t55 -131t130.5 -55.5zM442 556q10 0 16.5 6.5t6.5 16.5t-6.5 17t-16.5 7h-93v93q0 10 -6.5 16.5t-16.5 6.5t-16.5 -6.5t-6.5 -16.5v-117
q0 -10 6.5 -16.5t16.5 -6.5h116zM768 323h-279q-10 0 -17 -6.5t-7 -16.5t7 -16.5t17 -6.5h279q10 0 16.5 6.5t6.5 16.5t-6.5 16.5t-16.5 6.5zM768 184h-279q-10 0 -17 -6.5t-7 -17t7 -17t17 -6.5h279q10 0 16.5 6.5t6.5 17t-6.5 17t-16.5 6.5zM768 44h-279q-10 0 -17 -6.5
t-7 -16.5t7 -17t17 -7h279q10 0 16.5 7t6.5 17t-6.5 16.5t-16.5 6.5z" />
    <glyph glyph-name="icon002" unicode="&#xe602;" 
d="M435 -20q-25 199 -95 351l3 13q24 -12 59 -24q62 -147 85 -331q20 3 38 5q25 214 107 389q22 13 35 20q-3 -32 -1 -73q-65 -151 -87 -331q51 2 92.5 -5t68 -19t46.5 -28.5t30 -31.5t16 -30t7 -22t1 -9h-591q41 19 66.5 37.5t34.5 31.5t17 24t23.5 19.5t44.5 13.5v0z
M520 318q13 9 29 19q15 -32 17 -69q-16 30 -46 50v0zM664 110q30 31 40.5 66.5t8 72.5t-6.5 75.5t3 88t31 97.5q-16 -23 -60.5 -51.5t-88 -50.5t-83.5 -48.5t-50 -47.5q7 48 27 86t44 60.5t61.5 40.5t65.5 26.5t70 18.5q-53 -11 -99 -8.5t-72 12.5t-55.5 19t-49.5 11.5
t-54 -10.5q53 57 153 59.5t189 -57.5q-22 23 -58 43.5t-66.5 33t-61.5 35t-47 51.5q81 15 155 -37t92 -124q-2 16 0.5 60.5t-3.5 73t-30 42.5q30 -1 53 -22t33 -49.5t8.5 -59.5t-16.5 -52q41 18 74.5 1.5t55.5 -51.5t22 -68q-47 59 -142 89q78 -43 120.5 -138.5t28.5 -208.5
q-1 31 -19 67.5t-40.5 67t-53 79t-49.5 94.5q14 -44 16 -98.5t-10 -110.5t-47 -105t-89 -73v0zM323 496q36 29 81 43q43 6 98 -17q8 -3 29 -10q-16 -11 -29 -23q-7 -2 -27 -6t-29 -5.5t-32 -5t-34.5 -2.5t-36.5 1q68 -17 112 -41q-19 -33 -29 -74q-41 13 -69.5 28t-51.5 42
q7 -33 -3.5 -84t-26.5 -95.5t-26.5 -96.5t-3.5 -87q-35 89 -26 198.5t51 177.5q-31 -40 -66.5 -69t-61 -42t-51.5 -30t-40 -35q-1 84 56 135t141 63q-19 0 -42 -0.5t-43.5 -1.5t-39.5 -9.5t-30 -23.5q10 39 38 65t65.5 28.5t78.5 -32.5q-12 36 8.5 72t58.5 54t72 9
q-24 -8 -36.5 -26.5t-25 -49t-29.5 -50.5v0zM323 496z" />
    <glyph glyph-name="shoucang2" unicode="&#xe6bd;" 
d="M398 222zM937 543q-22 52 -62 92t-92 62q-54 22 -112 22q-87 0 -159 -47q-72 47 -159 47q-58 0 -112 -22q-52 -22 -92 -62t-62 -92q-22 -54 -22 -112q0 -99 70 -208q52 -81 143 -165q101 -95 203 -159l31 -19l31 19q102 64 203 159q91 84 143 165q70 109 70 208
q0 58 -22 112z" />
    <glyph glyph-name="jiudian" unicode="&#xe645;" 
d="M670.5 284q-8.5 0 -14.5 -6t-6 -15v0v0v0v-148v0v0v-1q0 -8 6 -14.5t15 -6.5t15 6.5t6 15.5v0v148v0v0v0q0 9 -6.5 15t-15 6zM581 507v0v0h-222h-1q-7 0 -11.5 -4.5t-4.5 -11.5v0v-398h255v398v0q0 6 -5 11t-11 5zM448 249q0 -7 -5 -12.5t-13 -5.5h-17q-7 0 -12.5 5.5
t-5.5 12.5v49q0 7 5.5 12.5t12.5 5.5h17q8 0 13 -5.5t5 -12.5v-49zM448 376q0 -7 -5 -12.5t-13 -5.5h-17q-7 0 -12.5 5.5t-5.5 12.5v49q0 8 5.5 13t12.5 5h17q8 0 13 -5t5 -13v-49zM544 249q0 -7 -5.5 -12.5t-12.5 -5.5h-18q-7 0 -12 5.5t-5 12.5v49q0 7 5 12.5t12 5.5h18
q7 0 12.5 -5.5t5.5 -12.5v-49zM544 376q0 -7 -5.5 -12.5t-12.5 -5.5h-18q-7 0 -12 5.5t-5 12.5v49q0 8 5 13t12 5h18q7 0 12.5 -5t5.5 -13v-49zM512 805q-103 0 -196.5 -40t-161 -107.5t-107.5 -161t-40 -196.5t40 -196.5t107.5 -161t161 -107.5t196.5 -40t196.5 40
t161 107.5t107.5 161t40 196.5t-40 196.5t-107.5 161t-161 107.5t-196.5 40zM762 40v0h-1v0v0h-498v0v0h-1v0q-10 0 -18 8t-8 19t8 18.5t19 7.5h1h25v435v0q0 13 9.5 22.5t22.5 9.5h295h2q13 0 22.5 -9.5t9.5 -22.5l-1 -1v-190h53h0.5h0.5q13 0 22 -9t9 -22v0v-213h26h1
q11 0 19 -7.5t8 -18.5t-8 -18.5t-18 -8.5z" />
    <glyph glyph-name="fenleierriyou" unicode="&#xe691;" 
d="M829 -45v0v-60q0 -13 -9 -21.5t-21 -8.5h-91q-12 0 -21 8.5t-9 21.5v60h-301v-60q0 -13 -9 -21.5t-21 -8.5h-91q-12 0 -21 8.5t-9 21.5v60q-25 0 -42.5 18t-17.5 42v633q0 23 31.5 41.5t58.5 18.5q14 7 38.5 17t95.5 27t138 17t142.5 -15t116.5 -31l42 -15
q25 0 42.5 -17.5t17.5 -42.5v-633q0 -24 -17.5 -42t-42.5 -18v0zM302 46q31 0 53 22t22 53t-22 53t-53.5 22t-53.5 -22t-22 -53t22 -53t54 -22v0zM648 708h-241q-12 0 -21 -8.5t-9 -21t9 -21.5t21 -9h241q13 0 21.5 9t8.5 21.5t-8.5 21t-21.5 8.5v0zM829 528q0 12 -9 21
t-21 9h-543q-12 0 -21 -9t-9 -21v-181q0 -13 9 -21.5t21 -8.5h543q12 0 21 8.5t9 21.5v181v0zM753 196q-31 0 -53 -22t-22 -53t22 -53t53.5 -22t53.5 22t22 53t-22 53t-54 22v0z" />
    <glyph glyph-name="fenleiyiriyou" unicode="&#xe693;" 
d="M913 -1h-1v-64q0 -15 -9.5 -26t-23.5 -11h-101q-14 0 -23.5 11t-9.5 26v64h-435v-64q0 -15 -9.5 -26t-23.5 -11h-101q-13 0 -23 11t-10 26v64v0q-28 0 -47.5 19.5t-19.5 47.5v167q0 28 19.5 47.5t47.5 19.5l94 402q12 3 34.5 9t98 15t158.5 9q81 0 153.5 -8.5
t104.5 -16.5l32 -8l95 -402q27 0 46.5 -19.5t19.5 -47.5v-167q0 -28 -19.5 -47.5t-46.5 -19.5v0zM143 166q0 -42 29.5 -71.5t71 -29.5t71 29.5t29.5 71.5t-29.5 71.5t-71 29.5t-71 -29.5t-29.5 -71.5v0zM768 635q-10 3 -29 9t-81.5 15t-129.5 9t-127 -8.5t-87 -16.5l-26 -8
l-65 -302h609l-64 302v0zM812 267q-42 0 -71.5 -29.5t-29.5 -71.5t29.5 -71.5t71 -29.5t71 29.5t29.5 71t-29.5 71.5t-70.5 30v0z" />
    <glyph glyph-name="44" unicode="&#xe60e;" 
d="M700 557q-22 45 -64 72q-43 28 -95 28h-58q-52 0 -95 -28q-42 -27 -64 -72l-7 -14h390zM351 563q21 34 56 53.5t76 19.5h58q41 0 76 -19.5t56 -53.5h-322zM783 563q-21 69 -79 111.5t-130 42.5h-124q-72 0 -130 -42.5t-79 -111.5q-84 -3 -142.5 -63t-58.5 -144v-290
q0 -86 61 -146.5t147 -60.5h528q86 0 147 60.5t61 146.5v290q0 84 -58.5 144t-142.5 63zM963 66q0 -77 -54.5 -132t-132.5 -55h-528q-78 0 -132.5 55t-54.5 132v290q0 77 54.5 132t132.5 55h8l2 7q18 65 71.5 106t120.5 41h124q67 0 120.5 -41t71.5 -106l2 -7h8
q78 0 132.5 -55t54.5 -132v-290zM664 276h-82v83q0 29 -20.5 49t-49.5 20t-49.5 -20t-20.5 -49v-83h-82q-29 0 -49.5 -20t-20.5 -49t20.5 -49.5t49.5 -20.5h82v-82q0 -29 20.5 -49.5t49.5 -20.5t49.5 20.5t20.5 49.5v82h82q29 0 49.5 20.5t20.5 49.5t-20.5 49t-49.5 20z
M664 158h-103v-103q0 -21 -14.5 -35.5t-34.5 -14.5t-34.5 14.5t-14.5 35.5v103h-103q-20 0 -34.5 14t-14.5 34.5t14.5 35t34.5 14.5h103v103q0 20 14.5 34.5t34.5 14.5t34.5 -14.5t14.5 -34.5v-103h103q20 0 34.5 -14.5t14.5 -35t-14.5 -34.5t-34.5 -14z" />
    <glyph glyph-name="remenmudedi" unicode="&#xe662;" 
d="M514.5 806q-102.5 0 -196 -40t-161 -108t-107.5 -161.5t-40 -196t40 -196t107.5 -161t161 -108t196 -40.5t196.5 40.5t161.5 108t107.5 161t40 196t-40 196t-107.5 161.5t-161.5 108t-196.5 40zM696 270q-35 4 -136.5 28.5t-136.5 29.5q-5 0 -61 -9v-325q0 -15 -10.5 -25
t-25.5 -10t-26 10t-11 25v613q0 15 11 25t26 10t25.5 -10t10.5 -25v-6q69 -30 95 -37q19 -5 45.5 -14.5t47.5 -14.5t46 -4q16 0 65 10t63 11q6 1 7 -8t-3 -25t-9 -33.5t-10 -38.5t-6 -36q-2 -17 -0.5 -33t7 -30.5t8.5 -21.5t11 -21t9 -15q7 -13 -7 -17.5t-35 -2.5z" />
    <glyph glyph-name="gouwu" unicode="&#xe683;" 
d="M900 416q-1 27 -21.5 45.5t-46.5 18.5h-68q-15 137 -86.5 228.5t-165.5 91.5t-165.5 -91.5t-86.5 -228.5h-68q-26 0 -46.5 -18.5t-21.5 -45.5l-50 -576q-2 -27 18.5 -45.5t51.5 -18.5h737q30 0 50.5 19t18.5 45zM512 736q69 0 122 -73t66 -183h-376q13 110 66 183t122 73
zM320 288q-26 0 -45 19t-19 45t19 45t45 19t45 -19t19 -45t-19 -45t-45 -19zM704 288q-26 0 -45 19t-19 45t19 45t45 19t45 -19t19 -45t-19 -45t-45 -19z" />
    <glyph glyph-name="bashi" unicode="&#xec3d;" 
d="M174 115zM101 115q0 30 21.5 51.5t52 21.5t52 -21.5t21.5 -51.5t-21.5 -51.5t-52 -21.5t-52 21.5t-21.5 51.5zM851 115zM778 115q0 30 21.5 51.5t52 21.5t52 -21.5t21.5 -51.5t-21.5 -51.5t-52 -21.5t-52 21.5t-21.5 51.5zM963 564h-836q-31 0 -56.5 -18.5t-34.5 -49.5
q-46 -157 -32 -375q1 -16 12.5 -27.5t28.5 -11.5h33q-5 17 -5 34q0 42 29.5 71.5t72 29.5t72 -29.5t29.5 -71.5q0 -17 -6 -34h485q-6 17 -6 34q0 42 30 71.5t72 29.5t72 -29.5t30 -71.5q0 -17 -6 -34h36q17 0 29 12t12 29v380q0 25 -18 43t-43 18zM246 342l-60 -45h-140
q6 103 31 187q5 17 19 27.5t31 10.5h119v-180zM481 350h-194v172h194v-172zM737 350h-215v172h215v-172zM981 350h-203v172h187q7 0 11.5 -5t4.5 -12v-155z" />
    <glyph glyph-name="mudedi" unicode="&#xe628;" 
d="M488 514zM386 -52h239v-81h-239v81zM790 452q0 116 -84.5 198.5t-204 82.5t-204 -82.5t-84.5 -198.5q0 -47 16 -92q17 -48 60 -111.5t94 -121t77 -85t41 -42.5l27 27q93 101 99 109l8 9q109 130 139 215l9 25h-2q9 33 9 67zM503 340q-51 0 -87 36t-36 87t36 87t87 36
t87 -36t36 -87t-36 -87t-87 -36z" />
    <glyph glyph-name="lipinqia" unicode="&#xe605;" 
d="M832 808h-377q-58 0 -99 -41t-41 -99v-147l-261 -234v0v0v-499h56v474l205 183v-259l-111 -95v0l30 -37h1v1v0l220 186q26 22 61 22q45 0 74 -34q25 -30 21.5 -69.5t-33.5 -65.5l-366 -305l-2 -1h83l80 66q37 -26 82 -26h377q58 0 99 41t41 99v700q0 58 -41 99t-99 41z
M832 -115h-18v867h18q35 0 59.5 -25t24.5 -59v-700q0 -34 -24.5 -58.5t-59.5 -24.5zM446 -80l166 139q46 41 49.5 102t-37.5 106q-44 50 -102 50q-56 0 -98 -37l-29 -25h-1l-23 -20v433q0 34 24.5 59t59.5 25h303v-867h-303q-20 0 -38 9l29 25v0v1z" />
    <glyph glyph-name="zhoubian" unicode="&#xe606;" 
d="M387 349h286q16 0 31 11.5t17 26.5l-8 29l-19 78q-3 17 -13 29h-303q-9 -12 -12 -29l-1 -1l-19 -77l-7 -29q1 -15 16 -26.5t32 -11.5zM592 253h-123q-6 0 -9.5 -4t-3.5 -9v-37q0 -5 3.5 -9t9.5 -4h123q6 0 9.5 4t3.5 9v37q0 5 -3.5 9t-9.5 4zM359.5 259q-18.5 0 -31 -13
t-12.5 -31.5t12.5 -31t31 -12.5t31.5 12.5t13 31t-13 31.5t-31.5 13zM700 259q-18 0 -31 -13t-13 -31.5t13 -31t31 -12.5t31 12.5t13 31t-13 31.5t-31 13zM512 744q-92 0 -176 -36t-144.5 -96.5t-96.5 -144.5t-36 -176t36 -176t96.5 -144.5t144.5 -96.5t176 -36t176 36
t144.5 96.5t96.5 144.5t36 176t-36 176t-96.5 144.5t-144.5 96.5t-176 36zM825 352l-21 -3q11 -22 11 -48l8 -94q0 -4 -1 -8q1 -3 1 -5v-139q0 -12 -8.5 -20.5t-20.5 -8.5h-44q-13 0 -21.5 8.5t-8.5 20.5v62h-381v-62q0 -12 -8.5 -20.5t-20.5 -8.5h-45q-12 0 -20.5 8.5
t-8.5 20.5v139q0 2 1 5q-1 4 -1 8l9 94q0 26 11 47l-23 4q-6 0 -11 5t-5 12v14q0 7 5 11.5t11 4.5h59q4 0 8 -2l26 105q6 31 27 53.5t53 22.5h248q29 0 51 -21t28 -55l26 -105q4 2 8 2h58q7 0 12 -4.5t5 -11.5v-14q0 -7 -5 -12t-12 -5z" />
    <glyph glyph-name="shoucang3" unicode="&#xe612;" horiz-adv-x="1026" 
d="M830 -188l-317 167l-317 -167l60 353l-256 250l354 51l159 321l158 -321l355 -51l-257 -250zM513 27l260 -137l-50 290l211 205l-291 42l-130 264l-130 -264l-291 -42l210 -205l-50 -290z" />
    <glyph glyph-name="tubiao102" unicode="&#xe603;" 
d="M674 677q53 -34 71.5 -60t9.5 -57t-48 -82q5 -4 12.5 -5.5t12 -1.5t13.5 0.5t13 1.5v0q27 0 38.5 0.5t29.5 -0.5t20.5 -4t13.5 -8.5t8.5 -14.5t4.5 -22t1.5 -31t-0.5 -41v-20q-1 -17 -8.5 -24.5t-24.5 -7.5q-187 1 -283 0q-19 0 -27 8.5t-7 27.5q1 29 0 94v7v7t-0.5 6
t-2 6t-3.5 4.5t-6 3t-9 0.5q-8 0 -12 -4.5t-5 -8.5t-1 -12.5v-10.5v-3.5v-3.5q-5 -91 -20.5 -106t-104.5 -15q-160 0 -175 -1q-29 -1 -40.5 11t-7.5 40q2 20 0 40q-6 46 13 67t66 16q4 -1 76 -1q-37 54 -43.5 86t13 58t75.5 61h27q49 -23 84 -52t59 -75q10 26 25 46t36 35.5
t36.5 24t42.5 21.5h27zM464 491q-19 83 -85 115q-20 11 -39 6t-30 -26q-18 -37 24 -62q68 -39 130 -33zM540 485q78 9 134 49q38 28 22 56q-22 39 -70 14q-59 -31 -86 -119zM484 -58q0 -7 -4.5 -11t-11.5 -4h-292q-6 0 -10.5 4t-4.5 11v304q0 6 4.5 10t10.5 4h292
q7 0 11.5 -4t4.5 -10v-304zM839 -58q0 -7 -4.5 -11t-11.5 -4h-292q-6 0 -10.5 4t-4.5 11v304q0 6 4.5 10t10.5 4h292q7 0 11.5 -4t4.5 -10v-304z" />
    <glyph glyph-name="liulan" unicode="&#xe63a;" 
d="M960 300q0 8 -2 10q0 6 -2 10v2q-1 3 -2 4q-62 136 -184 219t-258 83t-258 -83t-184 -218q-1 -2 -2 -5v-2q-1 -1 -2 -7l-1 -10q-1 -3 0 -6q0 -6 1 -7q0 -3 1 -7v0q0 -3 1 -6q1 -2 2 -3q62 -136 184 -219t258 -83t258 83t183 217q2 3 3 6q0 1 1 2l1 8v0q2 7 2 12v0z
M916 298l-1 -1v-1q-59 -128 -168 -204.5t-235 -76.5t-235 76.5t-168 204.5q-1 1 -1 1.5v1v0.5v0.5v0.5v1v2v0.5v0.5q60 128 169 205t235 77t235 -77t168 -205v-0.5v-0.5q1 -3 1 -4v-1v0zM512 449q-62 0 -105.5 -43.5t-43.5 -105.5t43.5 -105.5t105.5 -43.5t105.5 43.5
t43.5 105.5t-43.5 105.5t-105.5 43.5v0zM512 191q-45 0 -77 32t-32 77t32 77t77 32t77 -32t32 -77t-32 -77t-77 -32v0zM512 191z" />
    <glyph glyph-name="bus" unicode="&#xe613;" 
d="M281.5 -7q-31.5 0 -54 22.5t-22.5 54t22.5 54t54 22.5t54 -22.5t22.5 -54t-22.5 -54t-54 -22.5zM281.5 95q-10.5 0 -18 -7.5t-7.5 -18t7.5 -18t18 -7.5t18 7.5t7.5 18t-7.5 18t-18 7.5zM742.5 -7q-31.5 0 -54 22.5t-22.5 54t22.5 54t54 22.5t54 -22.5t22.5 -54t-22.5 -54
t-54 -22.5zM742.5 95q-10.5 0 -18 -7.5t-7.5 -18t7.5 -18t18 -7.5t18 7.5t7.5 18t-7.5 18t-18 7.5zM691 556h-358q-11 0 -18.5 7.5t-7.5 18t7.5 18t18.5 7.5h358q11 0 18.5 -7.5t7.5 -18t-7.5 -18t-18.5 -7.5zM794 505h-564q-10 0 -17.5 -7.5t-7.5 -18.5v-256
q0 -10 7.5 -17.5t17.5 -7.5h256v0h1h255v0h1h51q10 0 17.5 7.5t7.5 17.5v256q0 11 -7.5 18.5t-17.5 7.5zM256 454h512v-205h-18l-147 98q-9 6 -19.5 4t-16 -11t-3.5 -19.5t11 -16.5l83 -55h-164l-147 98q-9 6 -19.5 4t-16 -11t-3.5 -19.5t11 -16.5l83 -55h-146v205v0z
M800 721q-106 40 -288 40t-288 -40q-122 -47 -122 -139v-564q0 -46 29.5 -81t73.5 -44v-54q0 -21 15 -36t36 -15h51q21 0 36 15t15 36v51h308v-51q0 -21 15 -36t36 -15h51q21 0 36 15t15 36v54q44 9 73.5 44t29.5 81v564q0 92 -122 139zM307 -161h-51v51h51v-51zM717 -161
v51h51v-51h-51zM870 18q0 -31 -22.5 -53.5t-53.5 -22.5h-564q-31 0 -53.5 22.5t-22.5 53.5v564q0 57 89 91q96 37 269 37t269 -37q89 -34 89 -91v-564z" />
    <glyph glyph-name="qinzihuodong" unicode="&#xe607;" 
d="M338 452q-4 3 -11.5 8.5t-30.5 16t-45 15.5t-52 -0.5t-56 -24.5q-92 -69 -58 -172q31 -94 149 -168q125 -77 285 -91q-2 3 -3.5 9.5t-0.5 27.5t7.5 43.5t27 57t52.5 69.5q36 39 46 87.5t-1 89.5t-35 73.5t-53 43.5q-65 27 -125.5 6t-95.5 -91zM801 248q2 1 5 4t12.5 8.5
t19.5 9t25.5 3t30.5 -7.5q40 -18 47.5 -62t-19.5 -77q-21 -27 -82.5 -50.5t-106.5 -27.5q1 1 1.5 3t-1.5 9.5t-7 16t-18 22.5t-32 29q-28 21 -34 54t6.5 60.5t34.5 38.5q32 17 64 9t54 -42z" />
    <glyph glyph-name="hunshalifu" unicode="&#xe7a1;" 
d="M646 382v142q37 63 45 123v101h-45v-90q-5 0 -14 -1t-32.5 -7t-41 -14.5t-32 -26t-14.5 -40.5q0 23 -14 40.5t-33.5 26t-39.5 14.5t-33 7l-14 1v90h-45v-101q3 -27 14.5 -57.5t20.5 -48.5l10 -17v-142l-269 -440q81 -89 403 -89h34t79 4t107.5 12.5t102.5 27.5t80 45
l-269 440v0zM646 382z" />
    <glyph glyph-name="lipin" unicode="&#xe636;" 
d="M516.5 -62q9.5 0 16 6.5t6.5 15.5v491h378q37 0 63 26t26 63t-26 63t-63 26h-257l117 117q6 7 6 16t-6.5 15.5t-15.5 6.5t-16 -7l-148 -148h-159l-149 148q-6 7 -15.5 7t-16 -6.5t-6.5 -16t7 -15.5l117 -117h-260q-36 0 -62 -26t-26 -63q0 -31 18.5 -55t48.5 -31v-538
q0 -37 26 -63t63 -26h667q37 0 63.5 26t26.5 63v445q0 9 -7 15.5t-16 6.5t-15.5 -6.5t-6.5 -15.5v-445q0 -19 -13 -32t-32 -13h-668q-18 1 -31 14t-13 31v535h356v-491q0 -9 6.5 -15.5t16 -6.5zM539 584h378q19 0 32 -13t13 -31.5t-13 -31.5t-32 -13h-378v89zM116 495
q-19 0 -32 13t-13 31.5t13 31.5t32 13h378v-89h-378z" />
    <glyph glyph-name="hunsha" unicode="&#xe6c7;" 
d="M343 664q54 0 103.5 -18t64.5 -35q20 15 71 32.5t104 17.5q98 0 154 -68q42 -51 54.5 -114t-1 -121t-37.5 -106.5t-55 -84.5q-32 -37 -90 -76t-116.5 -75t-83.5 -60q-25 24 -83.5 60t-116.5 75t-90 76q-31 36 -55 84.5t-37.5 106.5t-1 121t54.5 114q59 71 161 71z
M343 724q-131 0 -208 -93q-40 -49 -58 -107.5t-15.5 -112.5t19.5 -108.5t41 -97.5t54 -78q22 -26 57.5 -54t60 -43.5t68.5 -42.5q84 -52 107 -74l42 -41l42 41q22 22 107 74q44 27 68.5 42.5t60 43.5t57.5 54q30 35 54 78t41 97.5t19.5 108.5t-15.5 112.5t-58 107.5
q-75 90 -201 90q-86 0 -171 -40q-78 43 -172 43v0v0zM788 548q-25 30 -60.5 44.5t-68.5 13.5t-65 -9t-53 -17.5t-30 -16.5q-10 12 -41.5 24.5t-72 19t-86.5 -7.5t-77 -51q-35 -43 -45.5 -96t1 -101.5t31.5 -89.5t46 -72q13 -15 33 -31q-1 30 1 58q4 56 32.5 97.5t71.5 41.5
q-29 0 -49 20.5t-20 49t20 49t49 20.5t49.5 -20.5t20.5 -49t-20.5 -49t-49.5 -20.5q42 0 73 -42.5t31 -96.5q0 54 31 96.5t73 42.5q-28 0 -48.5 20.5t-20.5 49t20.5 49t49 20.5t49 -20.5t20.5 -49t-20.5 -49t-49.5 -20.5q44 0 74.5 -42.5t30.5 -96.5q2 -24 4 -58
q19 16 32 31q27 31 47 72t31.5 89.5t1 101.5t-45.5 96z" />
    <glyph glyph-name="u-ico-job" unicode="&#xe677;" 
d="M780 -213h-534q-53 0 -90 37t-37 90v753q0 53 37 90.5t90 37.5h450l212 -212v-669q0 -53 -37.5 -90t-90.5 -37zM246 743q-31 0 -53.5 -22t-22.5 -54v-753q0 -32 22.5 -54t53.5 -22h534q32 0 54 22t22 54v649l-180 180h-430v0zM864 534h-223v235h51v-183h172v-52zM540 383
h243v-51h-243v51zM236 211h545v-52h-545v52zM239 22h545v-51h-545v51zM391 592h-48q-6 0 -10 4.5t-4 9.5v12q0 6 4 10t10 4h48q6 0 10 -4t4 -10v-12q0 -5 -4 -9.5t-10 -4.5zM348 592l-46 -233l62 -72l62 72l-42 233h-36z" />
    <glyph glyph-name="zhengming" unicode="&#xe655;" 
d="M242 267q8 12 8 27.5v27.5t20.5 36.5t65.5 56.5q95 69 119.5 94.5t30.5 59.5q4 18 8.5 86t10.5 84t43 16q61 1 90 -49q25 -43 12 -118q-6 -34 -21 -75.5t-16 -44.5q-4 -15 -5 -27.5t1 -17.5l1 -5h188q4 -3 9.5 -8.5t16 -22t14 -32t-5.5 -36t-34 -36.5q4 -2 9 -6
t15.5 -17.5t14 -29t-5 -40t-33.5 -50.5q2 -3 5.5 -9t9.5 -22t7 -31t-6.5 -33.5t-26.5 -31.5q3 -4 6.5 -10.5t10 -24t6.5 -33t-11 -33.5t-36 -29l-363 -21q-10 0 -25.5 2.5t-46.5 12.5t-40 24l-117 -4v354l71 16v0z" />
    <glyph glyph-name="chakanquanbu" unicode="&#xe67f;" 
d="M132 635h-61q-9 0 -15.5 -6.5t-6.5 -15.5t6.5 -15.5t15.5 -6.5h61q10 0 16.5 6.5t6.5 15.5t-6.5 15.5t-16.5 6.5zM265 591h697q9 0 15.5 6.5t6.5 15.5t-6.5 15.5t-15.5 6.5h-697q-9 0 -15.5 -6.5t-6.5 -15.5t6.5 -15.5t15.5 -6.5zM132 301h-61q-9 0 -15.5 -6.5t-6.5 -16
t6.5 -16t15.5 -6.5h61q10 0 16.5 6.5t6.5 16t-6.5 16t-16.5 6.5zM962 301h-697q-9 0 -15.5 -6.5t-6.5 -16t6.5 -16t15.5 -6.5h697q9 0 15.5 6.5t6.5 16t-6.5 16t-15.5 6.5zM132 -11h-61q-9 0 -15.5 -6.5t-6.5 -16t6.5 -16t15.5 -6.5h61q10 0 16.5 6.5t6.5 16t-6.5 16
t-16.5 6.5zM962 -11h-697q-9 0 -15.5 -6.5t-6.5 -16t6.5 -16t15.5 -6.5h697q9 0 15.5 6.5t6.5 16t-6.5 16t-15.5 6.5z" />
    <glyph glyph-name="yanchujiabin" unicode="&#xf0099;" 
d="M637 536q-14 49 -56 97q-32 37 -68 58t-67 21q-26 0 -44 -15l-143 -125q-33 -29 -17 -89q1 -4 6 -16l-156 -179l27 -31l-19 -16q-8 -7 -8.5 -17.5t5.5 -18.5q8 -9 20 -9q9 0 17 6l19 17l24 -28l138 92v-362q0 -10 7.5 -17.5t18 -7.5t18 7.5t7.5 17.5v394v1t-1 1l10 6
q32 -16 58.5 -16t43.5 15l144 125q33 29 16 89zM186 258l-26 30l113 130q13 -19 25 -32q14 -17 31 -31zM444 360q-3 -2 -10 -2q-18 0 -45 16t-52 45q-35 40 -45 78q-8 28 1 36l55 49l151 -173zM587 486l-49 -43l-152 172l50 43q3 3 10 3q17 0 44 -16t53 -45q34 -40 45 -78
q8 -29 -1 -36zM441.5 144q-10.5 0 -18 -7.5t-7.5 -18.5v-198q0 -11 7.5 -18.5t18 -7.5t18 7.5t7.5 18.5v198q0 11 -7.5 18.5t-18 7.5zM441.5 235q-10.5 0 -18 -7.5t-7.5 -18.5v-22q0 -11 7.5 -18.5t18 -7.5t18 7.5t7.5 18.5v22q0 11 -7.5 18.5t-18 7.5zM686 142
q-10 4 -19.5 -0.5t-13.5 -13.5l-56 -139l-55 138q-4 10 -13.5 14.5t-19.5 0.5t-14 -14t0 -19l78 -198q6 -17 23 -17v0q18 0 24 16l80 198q4 10 0 20t-14 14zM843 -12h73q2 13 2 25q0 52 -33 89t-79.5 37t-79.5 -37t-33 -88l-1 -1h1q0 -52 33 -88.5t79 -36.5q37 0 66 23.5
t40 60.5h-55q-18 -33 -51 -33q-19 0 -35 13.5t-22 35.5h94h0.5h0.5zM805.5 88q19.5 0 35 -13.5t22.5 -35.5h-115q6 22 22 35.5t35.5 13.5z" />
    <glyph glyph-name="lianhuashan" unicode="&#xe60c;" 
d="M391 218q1 41 14 75t29 52.5t36 33t28 18t13 4.5v0q4 -1 10.5 -4.5t24 -15.5t32 -26.5t28.5 -38t19 -49.5q1 -4 1 -10.5t-2 -22t-7 -30t-18 -31.5t-32 -30q-57 35 -57 173q-3 -5 -7 -14.5t-10 -35t-5 -48.5q0 -1 1 -13t1.5 -14.5t2.5 -14t4.5 -16t7 -14.5t11 -16t15 -15
t20.5 -17t26 -16q3 0 14 7t28.5 22.5t33 35.5t25 51t6.5 65q-7 36 -23.5 66t-34 47.5t-34.5 30t-28 17.5l-10 4q2 3 6 7t14.5 16.5t18.5 26t14 33.5t5 39q-2 27 -12.5 51t-24.5 37.5t-27.5 23.5t-22.5 14l-10 4q3 -2 7.5 -6t16 -17.5t20 -27.5t15 -35.5t6.5 -43.5
q-1 -16 -5 -30.5t-10.5 -24t-13.5 -18t-14.5 -13.5t-13.5 -8.5t-9.5 -5l-3.5 -1.5q-3 1 -7.5 3t-16.5 10t-21.5 18.5t-18 29.5t-9.5 41q0 26 7 49t17.5 38t21 26t18.5 16l7 5q-4 -2 -10.5 -5t-23.5 -15.5t-30.5 -27t-25.5 -38.5t-13 -51q-1 -31 14 -60.5t31 -43.5l16 -14
q-6 -3 -14.5 -8t-31 -24t-38.5 -40.5t-28.5 -57t-10.5 -74.5q-1 -43 15.5 -82.5t41 -66t49.5 -47t42 -30l17 -9.5q-4 4 -10.5 11t-25 30t-33 47.5t-29 62.5t-19.5 76zM734 488q14 -11 19.5 -25t5.5 -48q-1 -29 -13 -60.5t-24 -48.5l-12 -17q7 6 18 17.5t32.5 45.5t28.5 67
q7 35 -1 65t-25 39q-25 3 -47 0t-36 -9.5t-24 -13.5t-14 -13l-5 -5q3 1 8.5 2.5t19.5 4.5t26 4.5t24.5 0.5t18.5 -6zM871 412q7 -12 7 -27.5t-3 -23.5l-3 -9q2 1 4 2.5t8 7.5t8.5 13t4 18.5t-5.5 24.5q-5 13 -15 19.5t-20.5 6.5t-20 -2t-15.5 -5l-7 -3q5 1 12.5 0.5t23 -5.5
t22.5 -17zM913 270q0 -38 -43 -81q-27 -24 -54.5 -41t-47 -24.5t-36 -11t-24.5 -3.5h-8q4 0 12 -0.5t31 2t45.5 8t53 19.5t56.5 35q24 25 32.5 35t17.5 29t10 41q-17 25 -53.5 39.5t-64.5 15.5l-28 2q4 -1 10 -4t23 -10.5t30 -15t24.5 -17.5t13.5 -18zM907 162
q2 -3 4.5 -7.5t7 -18t-1.5 -22.5q-2 -10 -12.5 -23t-20.5 -21l-10 -8q2 -1 6 -0.5t15 3t20 7.5t18 16t14 27q1 22 -9 34t-21 12zM521 -14l-5 4q1 -2 5 -4zM687 97q-35 -7 -65.5 -19.5t-49.5 -25t-33 -25t-20 -19.5l-6 -7q3 3 9.5 8t25.5 17.5t39.5 22t50 17t57.5 6.5
q32 -1 58.5 -8.5t42.5 -16t27.5 -18t16 -15l4.5 -5.5q-2 -2 -5 -5.5t-14 -12.5t-24 -16.5t-35 -15t-47 -10.5q-145 -3 -198 37q14 -12 34 -23.5t66.5 -25.5t98.5 -15q41 3 75 13t53.5 22.5t33 25.5t18.5 20.5t5 8.5q-2 4 -8 10.5t-26 23t-43 28.5t-61 19.5t-80 3.5zM293 -50
q-26 4 -47.5 11.5t-34.5 15.5t-22 16t-13 14t-3 8q6 15 19 27.5t26 19.5t29 12.5t22 7t9 2.5v0q-4 1 -12 1.5t-30 -2t-41 -8.5t-41.5 -23t-36.5 -42q44 -75 174 -88q38 -1 73.5 5.5t59.5 16t42.5 19.5t27 16.5t8.5 7.5q-2 -2 -7.5 -5.5t-24 -12t-40.5 -12.5t-59 -8.5
t-78 1.5zM120 177q36 -24 70 -40t55.5 -22t41 -7t25.5 -0.5t9 1.5v0q-4 0 -11.5 1t-29 6t-41.5 13t-45.5 23.5t-44.5 36.5q-39 36 -42 81q4 16 31.5 32t50 24.5t24.5 8.5h-13t-30 -3t-41 -8t-39 -16t-30 -27q-1 -12 15 -45.5t45 -58.5zM148 350q-12 34 4 60q10 13 24 20
t24 7h9q-2 1 -5.5 3t-14 4.5t-20.5 2.5t-22 -6.5t-20 -18.5q-10 -24 -3 -40t14.5 -24t9.5 -8zM314 287q-6 4 -14 13t-22.5 40t-15.5 67q0 15 1 28t2 20t4.5 14l4.5 9t5 6l4 4q22 12 45 9.5t41 -11.5l19 -8l-3 3t-8.5 8t-14 10.5t-19.5 11t-24.5 9t-29.5 4.5t-35 -2
q-5 -6 -9.5 -14t-7.5 -16t-4.5 -16.5t-2 -17t-1 -15.5t0 -14t1 -11.5t1 -8l0.5 -3.5q2 -20 11 -39.5t20.5 -33t23.5 -24.5t19.5 -16.5zM151 64q-42 29 -46 53q-4 11 -2 21.5t8 18.5l5 7h-5t-10.5 -2t-13.5 -6.5t-10 -14.5t-4 -24q5 -15 15 -26.5t19 -16.5t21.5 -7.5
t15.5 -2.5h7z" />
    <glyph glyph-name="icon2" unicode="&#xe609;" 
d="M746 597l-401 -18l213 -353zM256 579l304 -519l30 19l-294 500h-40zM941 385q0 -118 -59 -217.5t-158 -157t-214 -57.5q-61 0 -121 18t-116.5 54t-102.5 96.5t-72 138.5q-6 20 -11.5 56.5t-5.5 43.5v47q6 94 46.5 173t101.5 129t133.5 77t147.5 27q118 0 217.5 -58
t156.5 -157t57 -213zM961 385q0 90 -35.5 172.5t-95.5 143t-143.5 96.5t-176.5 36q-61 0 -120 -15.5t-114 -49t-99 -81t-74.5 -115.5t-40.5 -148v-81q0 -11 4 -32t9 -38.5t10.5 -35.5t5.5 -19q30 -74 78.5 -130.5t105.5 -89t116.5 -48.5t118.5 -16q122 0 225.5 59.5
t164.5 163.5t61 228z" />
    <glyph glyph-name="kangfuliliao" unicode="&#xe6f9;" 
d="M512 832q92 0 173.5 -34.5t143.5 -96.5t96.5 -144t34.5 -173q0 -92 -34.5 -173.5t-96.5 -143.5t-143.5 -96.5t-173.5 -34.5q-91 0 -172.5 34.5t-144.5 96.5q-62 62 -96.5 143.5t-34.5 173.5q0 91 34.5 173t96.5 144q63 62 144.5 96.5t172.5 34.5v0v0zM813 684
q-59 59 -136.5 92t-164.5 33q-86 0 -163.5 -33t-136.5 -92t-92 -136.5t-33 -163.5t33.5 -164t91.5 -136q59 -59 136.5 -92t163.5 -33q87 0 164.5 33t136.5 92q58 58 91 136t33 164t-33 163t-91 137v0zM813 684zM512 651q44 0 74.5 -33.5t30.5 -81.5q0 -53 -32 -106t-73 -53
t-73 53t-32 106q0 48 30.5 81.5t74.5 33.5zM590 384q21 -6 70 -28q38 -17 58.5 -46t25.5 -80q2 -22 -3.5 -38.5t-19.5 -26.5t-29.5 -16.5t-41.5 -9t-47 -3.5t-55 -1h-18h-18q-30 0 -47.5 0.5t-43.5 1.5t-41.5 3.5t-34.5 7t-30 11.5t-20.5 17t-13 23.5t-1.5 30.5q6 51 26 80
t58 46q49 22 70 28l78 -107zM512 668q-51 0 -87 -39q-35 -39 -35 -93q0 -57 33 -112q8 -12 16 -22l-10 -2q-22 -7 -71 -29q-42 -18 -64 -50q-24 -34 -30 -89q-4 -42 19 -68q28 -31 96 -40q41 -5 133 -5h18h18q79 0 123.5 7.5t68.5 33.5t20 71q-5 56 -29 90q-22 31 -65 50
q-49 22 -71 29l-9 2q7 10 15 22q33 55 33 112q0 54 -35 93q-36 39 -87 39v0zM512 305l-62 84q29 -28 62 -28t62 28l-62 -84v0zM398 302q-17 0 -29.5 -12t-12.5 -29.5t12.5 -30t29.5 -12.5t29.5 12.5t12.5 30t-12.5 29.5t-29.5 12zM426 250h-18v-18h-20v18h-18v20h18v18h20
v-18h18v-20z" />
    <glyph glyph-name="chakanquanbudingdan" unicode="&#xe614;" 
d="M908 137h-792v502h792v-502v0zM208 222h429q8 0 13.5 5.5t5.5 13.5t-5.5 13t-13.5 5h-429q-8 0 -13 -5t-5 -13t5 -13.5t13 -5.5v0zM208 321h560q7 0 12.5 5.5t5.5 13t-5.5 13t-12.5 5.5h-560q-8 0 -13 -5.5t-5 -13t5 -13t13 -5.5v0zM208 419h248q8 0 13 5.5t5 13t-5 13
t-13 5.5h-248q-8 0 -13 -5.5t-5 -13t5 -13t13 -5.5v0zM933 688h-841q-11 0 -18 -7.5t-7 -17.5v-551q0 -10 7 -17.5t18 -7.5h841q10 0 17.5 7.5t7.5 17.5v551q0 10 -7.5 17.5t-17.5 7.5z" />
    <glyph glyph-name="lipin1" unicode="&#xe643;" 
d="M896 640h-213q21 28 21 64q0 45 -31 76t-76 31q-53 0 -85 -43q-32 43 -85 43q-45 0 -76 -31t-31 -76q0 -36 21 -64h-213q-18 0 -30.5 -12.5t-12.5 -30.5v-170h43v-384q0 -18 12.5 -30.5t30.5 -12.5h320h42h320q18 0 30.5 12.5t12.5 30.5v384h43v170q0 18 -12.5 30.5
t-30.5 12.5zM491 43h-320v384h320v-384zM491 469h-363v128h299h64v-128zM491 640h-64q-28 0 -46 18.5t-18 45.5t18 45.5t45.5 18.5t46 -18.5t18.5 -45.5v-64zM533 704q0 27 18.5 45.5t46 18.5t45.5 -18.5t18 -45.5t-18 -45.5t-46 -18.5h-64v64zM853 43h-320v384h320v-384z
M896 469h-363v128h64h299v-128z" />
    <glyph glyph-name="xiangdaofuwu" unicode="&#xe629;" 
d="M606 744q17 -21 22.5 -46t3.5 -38q-14 -73 -7 -103v-2l1 -1q0 -3 2 -6v-1v0q5 -12 -1 -41q-8 -40 -22 -56l-8 -9l-1 -12q-4 -31 -18 -60q-18 -39 -18 -69q0 -11 0.5 -17.5t3.5 -16.5t10.5 -17t19.5 -11q19 -5 44 -13q9 18 26 32q-34 11 -59 19q-4 1 -5 4.5t-1 19.5
q0 21 15 53q16 34 21 71q21 24 31 74q8 40 -1 63q-1 3 -2 4q-1 7 1 35t6 53q4 21 -3.5 54t-30.5 62q-45 57 -132 63h-40q-86 -6 -131 -63q-22 -29 -30 -62t-4 -54q5 -25 7 -53t0 -35q0 -1 -1 -4q-9 -23 -1 -63q10 -50 31 -74q5 -37 21 -71q8 -19 8 -54q0 -16 -1 -19.5
t-5 -4.5q-120 -35 -207 -73q-38 -17 -38 -58v-29q19 9 39 17v12q0 16 15 22q84 37 203 72q12 4 19.5 10.5t10 16.5t3 16.5t0.5 17.5q0 44 -12 70q-13 29 -18 60l-1 12l-8 9q-14 16 -22 56q-6 28 -1 40q2 5 3 9v1v1q7 30 -6 103q-3 13 3 38t23 46q34 44 102 49h37
q68 -5 103 -49zM909 484l-389 -419l232 -5l159 -125zM880 4l-119 94h-162l281 308v-402z" />
    <glyph glyph-name="qianzheng" unicode="&#xe6a3;" 
d="M956 737v-706q0 -37 -27.5 -64t-65.5 -27h-702q-38 0 -65.5 27t-27.5 64v706q0 37 27.5 64t65.5 27h345h225h132q38 0 65.5 -27t27.5 -64v0v0zM1024 758q0 57 -41 97.5t-99 40.5h-140h-239h-365q-58 0 -99 -40.5t-41 -97.5v-748q0 -57 41 -97.5t99 -40.5h744
q58 0 99 40.5t41 97.5v748v0v0zM782 208q-41 -52 -100 -85q-7 -3 -9 -10.5t2 -14.5t11.5 -9t14.5 2q66 37 111 94q5 7 4 14.5t-7.5 12t-14 3.5t-12.5 -7v0v0zM812 185q76 96 76 216q0 119 -74 214q-5 6 -13 7t-14.5 -3.5t-7.5 -12t4 -14.5q66 -85 66 -191q0 -107 -67 -193
q-5 -6 -4 -13.5t7.5 -12.5t14.5 -4t12 7v0v0zM324 91q66 -37 142 -46q8 -1 14.5 4t7.5 12.5t-4 13.5t-13 7q-69 8 -128 41q-7 4 -14.5 2t-11.5 -8.5t-2 -14t9 -11.5v0v0zM466 45q24 -3 46.5 -3t46.5 3q7 1 12 7t4 14t-7 12.5t-14 3.5q-22 -2 -42 -2t-41 2q-8 1 -14.5 -3.5
t-7.5 -12.5t4 -14t13 -7v0v0zM682 123q-60 -33 -128 -41q-8 -1 -13 -7t-4 -13.5t7.5 -12.5t14.5 -4q76 9 142 46q7 4 9 11.5t-2 14t-11.5 8.5t-14.5 -2v0v0zM242 592q39 51 96 84t124 43q8 1 13 7t3.5 14t-8 12.5t-13.5 3.5q-75 -11 -139 -48q-63 -37 -107 -93q-5 -6 -4 -14
t7.5 -12.5t14.5 -3.5t13 7v0v0zM814 615q-44 56 -107 93q-7 4 -15 2t-12 -8.5t-2 -14t9 -11.5q57 -33 96 -84q5 -6 13 -7t14 3.5t7.5 12.5t-3.5 14v0v0zM512 760q-28 0 -55 -4q-8 -1 -13 -7.5t-4 -14t7.5 -12t14.5 -3.5q25 3 50 3q8 0 14 5.5t6 13.5t-6 13.5t-14 5.5v0v0z
M512 722q25 0 50 -3q8 -1 14.5 3.5t8 12t-3.5 14t-13 7.5q-28 4 -56 4q-8 0 -13.5 -5.5t-5.5 -13.5t5.5 -13.5t13.5 -5.5v0v0zM343 123q-59 33 -100 85q-5 6 -13 7t-14 -3.5t-7.5 -12t3.5 -14.5q46 -57 112 -94q7 -4 14.5 -2t11.5 9t2 14.5t-9 10.5v0v0zM562 719
q67 -10 125 -43q7 -4 14.5 -2t12 8.5t2.5 14t-9 11.5q-64 37 -139 48q-8 1 -14.5 -3.5t-7.5 -12.5t4 -14t12 -7v0v0zM243 208q-68 86 -68 193q0 106 67 191q4 7 3 14.5t-7.5 12t-14 3.5t-12.5 -7q-74 -95 -74 -214q0 -120 75 -216q5 -6 13 -7t14.5 4t7.5 12.5t-4 13.5v0v0z
M660 567q-73 -19 -148 -19q-8 0 -13.5 -5.5t-5.5 -13.5t5.5 -13.5t13.5 -5.5q80 0 158 21q8 2 12 9t1.5 14.5t-9.5 11t-14 1.5v0v0zM355 531q77 -21 157 -21q8 0 14 5.5t6 13.5t-6 13.5t-14 5.5q-75 0 -147 19q-8 2 -15 -1.5t-9 -11t2 -14.5t12 -9v0v0zM789 620
q-61 -34 -129 -53q-8 -2 -12 -8.5t-2 -14t9 -11.5t15 -2q73 20 138 57q7 3 9 10.5t-2 14.5t-11.5 9t-14.5 -2v0v0zM216 588q65 -37 139 -57q7 -2 14 2t9 11.5t-1.5 14t-11.5 8.5q-68 19 -129 53q-7 4 -14.5 2t-11.5 -9t-2 -14.5t8 -10.5v0v0zM368 233q71 19 144 19
q8 0 14 5.5t6 13t-6 13t-14 5.5q-78 0 -154 -20q-8 -2 -12 -8.5t-1.5 -14t9 -11.5t14.5 -2v0v0zM667 269q-76 20 -155 20q-8 0 -13.5 -5.5t-5.5 -13t5.5 -13t13.5 -5.5q74 0 144 -19q8 -2 15 2t9 11.5t-2 14t-11 8.5v0v0zM237 181q62 34 131 52q8 2 12 9t2 14.5t-9 11
t-15 1.5q-74 -19 -140 -56q-7 -4 -9 -11.5t2 -14t11.5 -8.5t14.5 2v0v0zM807 213q-67 37 -140 56q-8 2 -15 -1.5t-9 -11t2 -14.5t11 -9q70 -18 131 -52q7 -4 15 -2t12 8.5t2 14t-9 11.5v0v0zM341 554q-20 -70 -21 -143q0 -8 5.5 -13.5t13.5 -5.5t14 5.5t6 13.5q0 68 19 133
q2 8 -1.5 14.5t-11.5 8.5t-15 -1.5t-9 -11.5v0v0zM382 257q-23 73 -23 149v2v0v3q0 8 -5.5 13.5t-13.5 5.5t-14 -5.5t-6 -13.5v-1v-1v-3q0 -82 25 -160q2 -8 9 -11.5t14.5 -1t11.5 9t2 14.5v0v0zM444 749q-27 -33 -48 -69q-36 -60 -55 -126q-2 -7 2 -14t11.5 -9t14.5 2t9 11
q18 62 51 117q20 34 45 65q5 6 4.5 13.5t-7 12.5t-14.5 4t-13 -7v0v0zM404 118q22 -35 50 -66q5 -6 13 -6.5t14 4t6.5 12.5t-4.5 14q-25 29 -46 62q-4 6 -12 8t-14.5 -2t-8.5 -11.5t2 -14.5v0v0zM345 246q21 -68 59 -128q4 -7 12 -8.5t15 2.5t8.5 11.5t-2.5 14.5
q-36 56 -55 119q-3 7 -10 10.5t-14.5 1.5t-11.5 -9t-1 -14v0v0zM571 52q27 31 49 66q5 7 3 14.5t-9 11.5t-14.5 2t-11.5 -8q-21 -33 -47 -62q-5 -6 -4 -14t7 -12.5t14 -4t13 6.5v0v0zM680 246q25 78 25 160v3v1l-1 1q0 8 -5.5 13.5t-13.5 5.5t-13.5 -5.5t-5.5 -13.5v-3v0v-2
q0 -76 -23 -149q-2 -8 1.5 -14.5t11.5 -9t15 1t9 11.5v0v0zM620 118q39 60 60 128q2 7 -1.5 14t-11.5 9t-15 -1.5t-9 -10.5q-20 -63 -55 -119q-5 -7 -3 -14.5t9 -11.5t14.5 -2.5t11.5 8.5v0v0zM595 661q33 -55 51 -117q2 -7 9 -11t15 -2t12 9t1 14q-19 66 -54 126
q-4 7 -12 9t-15 -2t-9 -11.5t2 -14.5v0v0zM704 411q0 73 -21 143q-2 8 -9 11.5t-14.5 1.5t-11.5 -8.5t-2 -14.5q19 -65 20 -133q0 -8 5.5 -13.5t13.5 -5.5t14 5.5t5 13.5v0v0zM550 726q25 -31 45 -65q4 -6 12 -8t15 1.5t9 11t-2 14.5q-22 36 -49 69q-5 6 -12.5 7t-14 -4
t-7.5 -12.5t4 -13.5v0v0zM339 392h173q8 0 14 5.5t6 13.5t-6 13.5t-14 5.5h-173q-8 0 -13.5 -5.5t-5.5 -13.5t5.5 -13.5t13.5 -5.5v0v0zM685 430h-173q-8 0 -13.5 -5.5t-5.5 -13.5t5.5 -13.5t13.5 -5.5h173q8 0 13.5 5.5t5.5 13.5t-5.5 13.5t-13.5 5.5v0v0zM685 392h173
q8 0 14 5.5t6 13.5t-6 13.5t-14 5.5h-173q-8 0 -13.5 -5.5t-5.5 -13.5t5.5 -13.5t13.5 -5.5v0v0zM161 392h178q8 0 14 5.5t6 13.5t-6 13.5t-14 5.5h-178q-8 0 -13.5 -5.5t-5.5 -13.5t5.5 -13.5t13.5 -5.5v0v0zM493 741v-212q0 -8 5.5 -13.5t13.5 -5.5t14 5.5t6 13.5v212
q0 8 -6 13.5t-14 5.5t-13.5 -5.5t-5.5 -13.5v0v0zM532 135v276q0 8 -6 13.5t-14 5.5t-13.5 -5.5t-5.5 -13.5v-276q0 -8 5.5 -13.5t13.5 -5.5t14 5.5t6 13.5v0v0zM493 529v-118q0 -8 5.5 -13.5t13.5 -5.5t14 5.5t6 13.5v118q0 8 -6 13.5t-14 5.5t-13.5 -5.5t-5.5 -13.5v0v0z
M532 64v71q0 8 -6 13.5t-14 5.5t-13.5 -5.5t-5.5 -13.5v-71q0 -8 5.5 -13.5t13.5 -5.5t14 5.5t6 13.5v0v0z" />
    <glyph glyph-name="liberty1162759easyiconnet" unicode="&#xe60d;" 
d="M591 -94l-2 4l-2 59q1 11 7 19q2 3 2.5 20.5t0 41.5t-1.5 47t-2 40t-1 16q6 16 11 19q2 2 -3 53.5t-4 52.5q7 4 25 14q4 2 10 15t10 24l5 12q5 7 12 12q9 6 18 29q1 4 0.5 7.5t-2.5 5.5l-1 3l11 26l-4 6l-46 22l-19 -28q-17 10 -27 20q-4 6 -7.5 25.5t-8.5 27.5
q-6 10 -23 17q-9 24 -10 29q-5 19 1 32q1 4 -1 19q0 1 1 2t1 3q7 1 17.5 3t18 4l7.5 2q-7 2 -44 5q0 3 -1 4l39 24l-46 -12q-1 1 -1.5 2.5t-2.5 2.5q2 3 7 12.5t9 18l4 8.5q-4 -3 -18.5 -17.5l-15.5 -15.5q-4 1 -9 2l-9 53l-6 -53q-6 -1 -10 -3v0q-35 33 -37 35q-1 1 4.5 -9
t11.5 -21l5 -10l-3 -6l-29 7q-1 -5 -1 -6l24 -11l-1 -4q-12 0 -20 -1q1 -5 3 -9l17 -3l2 -2q2 -5 4 -8l4 -21l-2 -22q-6 2 -10 5q-14 14 -15 26q-1 19 -6 25q-4 9 -6 22q0 4 -1 8v2v2v0v4q0 14 -8.5 41.5t-8.5 30.5q0 2 -0.5 10t-0.5 16t0.5 14t-2 12.5t-5.5 9.5l-3 4
q1 4 5 8q2 3 2 6q17 4 17 10q0 2 -2 4v9q2 2 2 4q0 9 -24 11q-1 7 2 9q9 6 8 14q-1 12 2 16l6 6l-17 -7l15 24q-28 -9 -37 -17q-12 -11 -7 -29q4 -11 9 -16q-26 -2 -26 -11q0 -2 2 -3v-10q-2 -2 -2 -4q0 -5 14 -9q-1 -3 0.5 -6t2.5 -4l1 -2v0q-4 -4 -4 -19q-1 -4 0 -8
t2 -6.5l2 -5t2 -3.5l1 -1q1 -4 1 -13q0 -3 2 -9t4 -10l2 -4v-37q0 -10 2.5 -26.5t5.5 -27.5l3 -11q-10 -18 -18 -38q-4 -8 0 -20t10 -19l7 -8q16 -45 17 -63q2 -22 4 -91t0 -100q-3 -21 -5.5 -75t-1.5 -65q0 -1 2.5 -23t3.5 -38t-1 -42q-1 -18 -2 -45t-1 -44v-18v-9h-73v-34
h356v34h-99v0zM636 445l39 -18l-8 -18q-10 1 -15 -4q-3 -2 -8 -10.5t-5 -11.5l2 -13l-29 -52l-6 5l-5 71zM504 582q-1 -3 -4 -3l-5 -1l4 -5v-2q-1 -1 -3.5 -1t-3.5 -3h5l3 -3v-8q0 -3 -4 -2q-12 1 -14 6q-2 3 -2.5 10.5t0.5 9.5q2 4 13 7q3 1 1 8q0 1 -2 2l-4 2h-3q-2 2 2 5
t9 5.5t7 1.5l13 -11q-10 -2 -12 -3q-1 -1 -1 -4.5t0.5 -6.5t0.5 -4zM514 570q-2 0 -5 7q-2 7 0 7q9 0 10 -2q0 -2 -2 -6.5t-3 -5.5zM509 616q-12 1 -14 0q-4 -2 -22 -15q-3 -2 -5 4l-1 5q4 6 12 10.5t12 5.5q11 1 17 -2q1 -1 6 -1.5t8 -2.5q4 -3 6 -8.5t2 -7.5q-1 -1 -5.5 2
t-9.5 6t-6 4z" />
    <glyph glyph-name="gouwu1" unicode="&#xe60a;" 
d="M778 685q-111 -9 -196 -15q-38 -3 -73 -6q-37 -3 -66 -4q-30 -2 -50.5 -4t-24.5 -2q-5 -1 -11 -1.5t-11 -2.5l-11 -4l-42 19q5 7 12 13q4 4 11.5 8.5t14.5 5.5q6 1 31 3q27 2 60 4q0 13 2.5 34t11.5 42t26 37t46 19q34 3 55.5 -10.5t33.5 -33t16.5 -39.5t5.5 -32
q53 4 68 5q27 2 30 3q10 1 23 -4t20 -12q2 -2 5.5 -6t6.5 -7q3 -4 6 -10v0zM516 798q-18 -2 -29 -13t-16.5 -26t-7.5 -30.5t-2 -25.5q29 2 60 5t60 5q-1 8 -4 23t-10.5 29.5t-20 24t-30.5 8.5v0zM886 102q5 -27 -1 -44.5t-35 -23.5q-9 -3 -41 -10t-76 -16q-42 -9 -94 -20
q-50 -11 -96 -21q-44 -9 -82 -17q-37 -7 -52 -10q-35 -8 -51.5 4.5t-16.5 36.5v582q0 24 10 38.5t29 15.5q7 0 18 1q10 1 21 2l26 2l8 -136q-1 -1 -3 -1t-6 -0.5t-9 -0.5q-19 -2 -18 -23q0 -9 1 -24t1.5 -31.5t1.5 -32t2 -25.5q1 -18 6 -20.5t21 -2.5h13q6 0 11 0.5t12 1.5
q7 0 17 1q20 2 25.5 8.5t4.5 19.5q0 7 -1 24q-2 17 -3 34q-2 18 -3 34t-2 23q-1 11 -4 16t-11 4q-3 0 -7 -0.5t-8 -0.5h-7l-9 135q64 5 118 9q21 2 46 4q23 2 43 3t36 3q15 1 22 2q28 2 44 -9.5t20 -33.5q1 -8 6 -46q6 -37 15 -91q8 -53 18 -114q9 -60 18 -114q8 -53 14 -91
t8 -45v0zM291 19q0 -13 1 -23t3 -16q2 -7 5 -11q-24 12 -45 25q-19 10 -38 21q-20 11 -33 19q-24 14 -33 33.5t-4 41.5q1 6 8 42t17 87t21 110q10 54 20 110q9 51 16 88q8 37 8 43q4 21 14 32.5t23 5.5q8 -3 13 -8q3 -3 4 -5v-595v0zM291 19z" />
    <glyph glyph-name="tingche" unicode="&#xe670;" 
d="M404 784q111 16 215 0q14 -3 46 -9t55.5 -11.5t45.5 -11.5q55 -15 74 -71q31 -90 64 -174q3 -8 10.5 -16t12.5 -7q33 4 52 -12t31 -47q4 -13 0 -32q-3 -1 -57 -16q7 -58 7 -61q2 -180 0 -283q-1 -12 -6.5 -28t-10.5 -19q-5 -8 -78.5 -8.5t-81.5 5.5q-16 11 -20.5 29
t-2 34t-3.5 34h-484q-3 -12 -8 -38t-9 -41.5t-9 -17.5q-19 -7 -89 -7t-75 7q-15 11 -18 54q-2 24 -1 119q0 29 3 223q-15 4 -54 14q-2 16 0 25q12 36 31 53t55 13q4 -1 11 6.5t10 14.5q39 103 49 140q14 56 53 85t99 41q5 1 83 13zM184 469q333 -69 654 0q-48 146 -51 158
q-17 65 -83 68q-182 8 -311 9q-35 0 -102 -16q-12 -2 -23 -9.5t-14 -15.5q-12 -30 -70 -194zM226 228v0q34 0 54 4q9 3 19 9.5t12 14.5q2 5 -4.5 16.5t-13.5 14.5q-66 31 -125 50q-43 14 -52 -24q-15 -66 32 -76q6 -1 78 -9zM802 228q7 1 23.5 2.5t30 3t25.5 4.5q9 2 15 6.5
t9 8.5t4.5 12t1.5 12t-0.5 14.5t-0.5 13.5q-1 18 -11 28t-25 5q-85 -26 -150 -58q-17 -8 -12.5 -25t23.5 -21q4 -1 67 -6z" />
    <glyph glyph-name="qinzi" unicode="&#xe617;" 
d="M968 463q-2 18 -14 31q-1 1 -2 3q1 17 -1 41q-2 31 -13 75l-7 28q2 -11 6 -28q7 -39 9 -75q2 -22 0 -37l-4 4q-1 0 -3.5 1.5t-3.5 2.5l-8 3q-1 0 -9 2h-8q-11 -3 -16 -9q-13 -13 -9 -32l3 -8l6 -6l7 -5q7 -2 8 -2q19 -5 30 8q8 9 11 25q8 -10 9 -23q2 -13 -3 -28
q-5 -14 -14 -27q-7 -11 -18 -22q-36 -39 -85 -61q-22 -10 -40 -16q-3 -1 -9.5 -2.5t-7.5 -1.5q-13 -3 -15 -4q-16 -2 -21 -3l-7 -1q3 0 8 1q7 0 21 2q1 0 6.5 1t8.5 1l6.5 1.5t10.5 2.5q19 5 41 14q53 23 89 60q11 12 19 24q10 14 15 28q6 17 4 32zM934 465q-9 -9 -24 -6
t-17 16q-4 15 7 25q3 3 11 6h7q0 -1 2.5 -1t3.5 -1l7 -3q1 0 4 -2l2 -2l6 -4q0 -1 2 -2q-1 0 -1 -1v-2q-3 -15 -10 -23zM642 431zM563 430.5q0 32.5 23.5 56t56 23.5t55.5 -23.5t23 -56t-23 -56t-55.5 -23.5t-56 23.5t-23.5 56zM319.5 619q37.5 0 64.5 27t27 64.5t-27 64
t-64.5 26.5t-64 -26.5t-26.5 -64t26.5 -64.5t64 -27zM788 313q-4 7 -9.5 8.5t-9.5 -1.5l-3 -2q-3 -2 -8.5 -6t-23.5 -12t-37.5 -13t-49 -4.5t-59.5 9.5q-22 6 -41.5 19.5t-35 31.5t-27.5 36t-21.5 39t-15 34.5t-11.5 30t-6 17.5q-8 19 -20.5 29.5t-28.5 7.5
q-47 -3 -73.5 1.5t-53.5 15.5q-7 3 -16 10.5t-17.5 14t-18.5 11.5t-22 3.5t-25 -10.5q-32 -29 -55.5 -64.5t-35 -66.5t-16.5 -58.5t-4 -45t6 -22.5q14 -12 26 -6t15 23q21 83 71 133q-21 -66 -25.5 -139.5t2.5 -130.5t20 -108t23.5 -78t15.5 -36q10 -15 22 -12t17 14
q-6 61 -7 113.5t1.5 83.5t7 56t7 32t4.5 11q-4 -25 -7 -51t-3.5 -48.5t-1 -44t0.5 -39.5t2.5 -34t3 -28.5t2.5 -21t2 -13.5t1 -4q1 -3 2.5 -6.5t9 -9.5t15.5 -5q15 1 22.5 11.5t4.5 24.5q-13 235 89 413q10 -34 27 -62.5t31 -42.5t30 -28.5t20 -18.5q-11 -43 -15.5 -80.5
t-2 -68t5 -48t9 -40t7.5 -26.5q4 -17 10.5 -26.5t12.5 -11.5t16 -3q12 -1 18.5 11t3.5 25q-5 39 -4.5 59.5t4 43.5t3.5 27q33 -63 96 -151q9 -13 24 -17t21 2q24 13 11 36q-18 26 -30.5 52t-18 53.5t-8 41.5t-3.5 42t-1 29q38 6 71 24.5t47.5 37t9.5 27.5zM994 717v0
q-7 8 -19 12h-1v0v1v-1v1q-14 2 -25 -1v0v0q-6 -2 -11 -5l-2 -2q-4 -3 -7 -7v0q-7 -9 -11 -21v0v0q-1 -4 -2 -9v0q-5 5 -12 10v0v0q-7 5 -14 8v0q-9 3 -17 3v0q-9 0 -16 -3v0q-6 -3 -11 -7q-2 -1 -4 -3q-6 -6 -10 -14q-3 -8 -2 -18v0q0 -8 5 -16q2 -5 6 -10q6 -7 15 -14v0
q11 -9 27 -16v0v0q26 -13 58 -18v0l1 -1h1l2 2q7 6 15 14q7 8 13 16q14 18 22 35v0q5 11 8 20q3 12 1 23v0q0 6 -3 11l-4 8q-1 1 -3 2zM832 679v0v0v0z" />
    <glyph glyph-name="mingxi" unicode="&#xe646;" 
d="M984 583q1 -4 3.5 -11t3.5 -9h-54q-54 126 -169 204t-256 78q-94 0 -179 -36.5t-147 -98.5t-98.5 -147t-36.5 -179h-51q0 139 68.5 257t186.5 186.5t257 68.5q135 0 249.5 -65t183.5 -175l16 90q2 10 10.5 16t19 4.5t16.5 -10.5t4 -19l-26 -151q0 -1 -0.5 -1.5t-0.5 -1.5
zM717 307v-51h-179v-154h-52v154h-179v51h179v77h-179v51h159l-116 139l39 33l123 -146v0l123 146l39 -33l-116 -139h159v-51h-179v-77h179zM40 185q-1 4 -3.5 11t-3.5 9h54q54 -126 169 -204t256 -78q94 0 179 36.5t147 98.5t98.5 147t36.5 179h51q0 -139 -68.5 -257
t-186.5 -186.5t-257 -68.5q-135 0 -249.5 65t-183.5 175l-16 -90q-2 -10 -10.5 -16t-19 -4.5t-16.5 10.5t-4 19l26 151q0 1 0.5 1.5t0.5 1.5z" />
    <glyph glyph-name="shouzhimingxi" unicode="&#xe616;" 
d="M195 658h229v-286h-229v286zM698 89h-504q-6 0 -10.5 5t-4.5 11.5t4.5 11t10.5 4.5h504q7 0 11.5 -4.5t4.5 -11.5t-4.5 -11.5t-11.5 -4.5zM698 229h-504q-6 0 -10.5 4.5t-4.5 11t4.5 11t10.5 4.5h504q7 0 11.5 -4.5t4.5 -11t-4.5 -11t-11.5 -4.5zM698 497h-177
q-6 0 -10.5 5t-4.5 11.5t4.5 11t10.5 4.5h177q7 0 11.5 -4.5t4.5 -11t-4.5 -11.5t-11.5 -5zM698 625h-191q-7 0 -11.5 4.5t-4.5 11t4.5 11t11.5 4.5h191q7 0 11.5 -4.5t4.5 -11t-4.5 -11t-11.5 -4.5zM744 -128h-573q-52 0 -79.5 28t-27.5 80v713q0 53 27.5 80.5t79.5 27.5
h573q51 0 78.5 -28t27.5 -80v-713q0 -52 -27.5 -80t-78.5 -28zM171 770q-39 0 -57.5 -18.5t-18.5 -58.5v-713q0 -40 18.5 -58t57.5 -18h573q39 0 57 18t18 58v713q0 40 -18 58.5t-57 18.5h-573zM960 149h-31v638q0 40 -18.5 58.5t-57.5 18.5h-573v32h573q52 0 79.5 -27.5
t27.5 -81.5v-638z" />
    <glyph glyph-name="mianfeibashi" unicode="&#xe62a;" 
d="M930 525h-56v-83h-28v250q0 23 -16 39.5t-40 16.5q-15 6 -42 15t-101 24.5t-136 15.5t-125 -13.5t-95 -27.5l-32 -14q-25 0 -54 -17t-29 -39v-250h-28v83h-56q-12 0 -20 -8t-8 -20v-83q0 -12 8 -20t20 -8h84v-278q0 -23 16 -39.5t39 -16.5v-55q0 -12 8.5 -20t19.5 -8h84
q12 0 20 8t8 20v55h280v-55q0 -12 8 -20t20 -8h83q12 0 20 8t8 20v55q24 0 40 16.5t16 39.5v278h84q12 0 20 8t8 20v83q0 12 -8 20t-20 8zM399 748h224q11 0 19.5 -8.5t8.5 -20t-8.5 -19.5t-19.5 -8h-224q-11 0 -19.5 8t-8.5 19.5t8.5 20t19.5 8.5zM301 136q-29 0 -49.5 20
t-20.5 49t20.5 49.5t49.5 20.5t49.5 -20.5t20.5 -49.5t-20.5 -49t-49.5 -20zM483 414q0 -12 -8 -20t-20 -8h-196q-11 0 -19.5 8t-8.5 20v167q0 11 8.5 19.5t19.5 8.5h196q12 0 20 -8.5t8 -19.5v-167zM720.5 136q-28.5 0 -49 20t-20.5 49t20.5 49.5t49 20.5t49 -20.5
t20.5 -49.5t-20.5 -49t-49 -20zM790 414q0 -12 -8 -20t-20 -8h-195q-12 0 -20 8t-8 20v167q0 11 8 19.5t20 8.5h195q12 0 20 -8.5t8 -19.5v-167z" />
    <glyph glyph-name="duihuan" unicode="&#xe6d9;" 
d="M150 120q64 -87 159 -135.5t203 -48.5q91 0 174 35.5t143 95.5t95.5 143t35.5 174q0 7 -5 11.5t-11.5 4.5t-11 -4.5t-4.5 -11.5q0 -113 -55.5 -209t-151.5 -151.5t-209 -55.5q-100 0 -188.5 45t-147.5 126q-9 13 -22 3.5t-4 -22.5v0zM870 653q-63 84 -157.5 131.5
t-200.5 47.5q-91 0 -174 -35.5t-143 -95.5t-95.5 -143t-35.5 -174q0 -7 5 -11.5t11.5 -4.5t11 4.5t4.5 11.5q0 113 55.5 209t151.5 151.5t209 55.5q99 0 186.5 -44t146.5 -123h-58q-6 0 -11 -4.5t-5 -11.5t5 -11.5t11 -4.5h99q7 0 11.5 4.5t4.5 11.5v99q0 6 -4.5 11t-11.5 5
t-11.5 -5t-4.5 -11v-63v0zM870 619q2 1 3 2q7 4 7 12h6l-16 -16v2v0zM159 51v99l-16 -16h99q7 0 11.5 5t4.5 11.5t-4.5 11t-11.5 4.5h-99q-6 0 -11 -4.5t-5 -11.5v-99q0 -6 5 -11t11.5 -5t11 5t4.5 11z" />
    <glyph glyph-name="duibi" unicode="&#xe674;" 
d="M914 226q12 12 28 12t27.5 -12.5t11.5 -30t-11 -29.5l-246 -267q-25 -27 -41 -27q-18 0 -30.5 12.5t-12.5 30.5v938q0 18 12.5 30.5t30 12.5t30 -12.5t12.5 -30.5v-831l189 204v0v0zM299 743l-189 -204q-12 -12 -28 -12t-27.5 12.5t-11.5 30t11 29.5l246 267h1
q4 13 15 21.5t25 8.5q18 0 30.5 -12.5t12.5 -30.5v-938q0 -18 -12.5 -30.5t-30 -12.5t-30 12.5t-12.5 30.5v828v0v0z" />
    <glyph glyph-name="zaixianzixun1" unicode="&#xe626;" horiz-adv-x="1294" 
d="M1133 158q-10 340 -10 368q-62 139 -191 223.5t-285.5 84.5t-285.5 -84.5t-191 -223.5q0 -35 -1 -126.5t-2.5 -167.5t-1.5 -74q-74 0 -119.5 53t-45.5 132q0 51 26 94t69 67q60 173 211 282.5t340.5 109.5t340.5 -109.5t212 -282.5q43 -25 68.5 -67.5t25.5 -93.5
q0 -80 -43 -132.5t-117 -52.5zM259 37q23 54 13 77q-39 84 -39 178q0 86 32 164q32 75 89 133t131 90q77 33 160 33q84 0 161 -33q74 -32 131 -90t88 -133q33 -78 33 -163.5t-33 -163.5q-31 -76 -88 -134t-131 -90q-77 -33 -161 -33q-115 0 -210 59q-1 0 -1.5 0.5l-0.5 0.5
q-4 3 -11 -1q-67 -31 -139 -31q-42 0 -80 12l-50 16l44 28q36 22 62 81zM283 -51q33 0 68 9t48.5 15.5t19.5 9.5q6 4 12.5 3.5t12.5 -4.5q91 -62 201 -62q99 0 183.5 50t133 135.5t48.5 186.5t-48.5 186.5t-133 135.5t-183 50t-183 -50t-133 -135.5t-48.5 -186.5
q0 -83 34 -158v0q20 -43 -13 -117q-17 -38 -41 -67q11 -1 22 -1zM475.5 350q23.5 0 40 -17t16.5 -41t-16.5 -41t-40 -17t-40 17t-16.5 41t16.5 41t40 17zM657.5 350q23.5 0 40 -17t16.5 -41t-16.5 -41t-40 -17t-40 17t-16.5 41t16.5 41t40 17zM838.5 350q23.5 0 40.5 -17
t17 -41t-17 -41t-40.5 -17t-40 17t-16.5 41t16.5 41t40 17z" />
    <glyph glyph-name="jiankangyiliao" unicode="&#xe60b;" 
d="M603 327h-91v88q0 11 -6.5 18.5t-17.5 7.5h-4q-11 0 -20 -7.5t-9 -18.5v-88h-86q-11 0 -19.5 -8t-8.5 -19v-4q0 -11 8.5 -18.5t19.5 -7.5h86v-89q0 -10 9 -17.5t20 -7.5h4q11 0 17.5 7t6.5 18v89h91q10 0 16.5 7.5t6.5 18.5v4q0 11 -6.5 19t-16.5 8zM853 612h-170v113
q0 24 -17 40.5t-40 16.5h-285q-23 0 -40 -16.5t-17 -40.5v-113h-170q-24 0 -40.5 -17t-16.5 -40v-512q0 -24 16.5 -40.5t40.5 -16.5h739q24 0 40.5 16.5t16.5 40.5v512q0 23 -16.5 40t-40.5 17zM341 725h285v-113h-285v113zM853 43h-739v512h227h285h227v-512z" />
    <glyph glyph-name="dingzhi" unicode="&#xe60f;" 
d="M65 -126v40h893v-40h-893zM65 -19v134q0 34 23.5 57.5t56.5 23.5h733q33 0 56.5 -23.5t23.5 -57.5v-134h-231.5h-430h-231.5zM911 103q0 28 -12.5 35.5t-65.5 7.5h-643q-56 0 -67 -5.5t-11 -37.5v-76h799v76zM701 450q-17 -18 -16.5 -31.5t18.5 -30.5q32 -31 35 -35
q22 -27 11.5 -58.5t-44.5 -41.5q-10 -3 -22 -3h-91h-81v0h-99h-72v0q-41 0 -60 31q-21 33 0 66q4 6 22 25q4 3 11.5 10t11.5 11q24 26 1 52q-5 5 -14.5 15.5t-14.5 16.5q-57 65 -63 135q-12 127 84 210q85 73 187 73q44 0 91 -14q157 -46 189 -198q23 -103 -48 -192
q-13 -16 -36 -41zM736 663q-13 60 -35 89.5t-68 56.5q-4 1 -19.5 9t-22.5 10.5t-21.5 7t-29.5 6.5t-34 2q-81 0 -153 -62q-70 -61 -70 -174q0 -25 15 -52t33.5 -46t38.5 -40.5t26 -34.5q11 -22 -20 -51q-40 -37 -46 -64q0 -9 3.5 -13.5t21 -7t54.5 -2.5h243q18 0 28 5
q35 19 -19 70q-1 0 -7 5t-9 8.5t-8 9.5t-7 13t-2 15q0 4 0.5 7.5t2.5 7.5t3.5 6.5t5.5 7t6 6.5t7.5 8t7.5 8q29 31 39 44q29 36 37 69t-1 76z" />
    <glyph glyph-name="qinziyouxue" unicode="&#xe66d;" 
d="M962 352l41 -42l-61 -84l-82 84l41 42l-2 141q-183 -76 -320 -137q-35 -16 -64.5 -16.5t-64.5 13.5q-245 91 -372 152q-57 27 -57.5 45.5t58.5 41.5q54 21 184.5 71t175.5 67q34 13 49.5 18t37.5 4t46 -13q43 -18 187 -75.5t197 -78.5q25 -11 37 -20t10 -15.5t-6.5 -10.5
t-17.5 -9.5t-17 -8.5v-169zM778 395v-274q-4 -5 -11 -12t-31.5 -25t-52.5 -32t-73.5 -25.5t-93.5 -11.5q-156 0 -269 87l-22 19v274q18 -8 205 -85q45 -18 82 -18.5t82 18.5q54 26 184 85z" />
    <glyph glyph-name="yanchuzhanlan" unicode="&#xe672;" 
d="M1004 196q0 -75 -54 -140.5t-147.5 -108t-208.5 -55.5v76q0 34 -24 58t-58 24t-58 -24t-24 -58v-76q-115 13 -208.5 55.5t-147.5 108t-54 140.5q0 1 0.5 2l0.5 1h-1v181h2q-2 16 -2 22q0 80 60 148t163.5 110.5t227.5 48.5v0.5v0.5v42h-41q-17 0 -29 12t-12 29v41
q0 17 12 29.5t29 12.5h164q17 0 29 -12.5t12 -29.5v-41q0 -17 -12 -29t-29 -12h-41v-42v-0.5v-0.5q124 -6 227.5 -48.5t163.5 -110.5t60 -148q0 -6 -2 -22h2v-181h-1l0.5 -1t0.5 -2v0zM512 632q-111 0 -205.5 -31t-149.5 -83.5t-55 -115t55 -115.5t149.5 -83.5t205.5 -30.5
t205.5 30.5t149.5 83.5t55 115.5t-55 115t-149.5 83.5t-205.5 31v0zM726 468l-26 -111q70 -19 130 -51q-16 -17 -39 -33q-46 25 -101 41l-11 -43q-1 -6 -8 -10t-15.5 -4t-14 4t-4.5 10l10 54q-66 14 -135 14t-135 -14l10 -54q1 -6 -4.5 -10t-14 -4t-15.5 4t-8 10l-11 43
q-55 -16 -101 -41q-23 16 -39 33q60 33 130 51l-26 111q-89 -33 -145 -89q-3 12 -3 23q0 25 12 50q59 38 126 59l-11 45q23 11 48 19q9 -8 11 -18l5 -31q84 19 171 19t171 -19l5 31q2 10 10 18q27 -8 49 -19l-11 -45q67 -21 126 -59q12 -25 12 -50q0 -10 -3 -23
q-56 56 -145 89v0zM512 504q-85 0 -163 -20l21 -117q71 13 142 13t143 -13l20 117q-79 20 -163 20v0zM512 504z" />
    <glyph glyph-name="duoriyou" unicode="&#xe676;" 
d="M145 875h-66q-14 0 -24 -10t-10 -24v-915q0 -14 10 -24t24 -10h66q14 0 24 10t10 24v915q0 14 -10 24t-24 10zM945 741q-115 -53 -528 84l-138 50v0q-7 2 -8.5 -2t-1.5 -18v-4v-512v-5v-13.5t2.5 -8.5t7.5 -7q15 -4 41.5 -12t106 -27.5t156 -33.5t177.5 -23t185 -4
q34 2 34 33v469q0 17 -9 29t-25 5z" />
    <glyph glyph-name="quanbu" unicode="&#xe62c;" 
d="M98 832h1h357q14 0 24.5 -10t10.5 -24v-1v-358q0 -14 -10.5 -24t-24.5 -10h-1h-357q-14 0 -24 10t-10 24v1v358q0 14 10 24t24 10v0zM422 763v0h-289v-289h289v289v0zM890 763v0h-289v-289h289v289v0zM567 832v0h357h1q14 0 24 -10t10 -24v-358v-1q0 -14 -10 -24t-24 -10
h-357h-1q-14 0 -24.5 10t-10.5 24v358v1q0 14 10.5 24t24.5 10v0zM133 5v0h289v289h-289v-289v0zM456 -64v0h-357h-1q-14 0 -24 10.5t-10 24.5v357v1q0 14 10 24t24 10h357h1q14 0 24.5 -10t10.5 -24v-357v-1q0 -14 -10.5 -24.5t-24.5 -10.5v0zM925 -64v0h-1h-357
q-14 0 -24.5 10.5t-10.5 24.5v1v357q0 14 10.5 24t24.5 10h1h357q14 0 24 -10t10 -24v-1v-357q0 -14 -10 -24.5t-24 -10.5v0zM601 5v0h289v289h-289v-289v0z" />
    <glyph glyph-name="shouye" unicode="&#xe610;" 
d="M949 377l-440 411l-441 -410q-6 -6 -6.5 -15t5.5 -15.5t15 -6.5t15 6l412 383l411 -384q6 -6 14 -6q10 0 16 7q6 6 6 15t-7 15v0zM815 368q-9 0 -15.5 -6t-6.5 -15v-327h-170v227h-228v-227h-171v327q0 9 -6 15t-15 6t-15.5 -6t-6.5 -15v-370h257v228h142v-228h256v370
q0 9 -6 15t-15 6v0zM665 674h128v-114q0 -9 6.5 -15t15.5 -6t15 6t6 15v157h-171q-9 0 -15 -6.5t-6 -15.5t6 -15t15 -6v0zM665 674z" />
    <glyph glyph-name="caiyizhanshi" unicode="&#xe768;" 
d="M109 287q-7 -7 -15 -18q-24 -37 -12 -69q8 -20 29 -34q29 -17 64.5 -14t110.5 27l9 3q88 28 118 28v32q-34 0 -128 -30q-5 -1 -9 -2q-64 -21 -96.5 -25t-50.5 7q-13 9 -17 20q-6 16 8 39q6 8 11 13zM476.5 478q72.5 0 123.5 52t51 125t-51 125t-123.5 52t-124 -52
t-51.5 -125t51.5 -125t124 -52zM476.5 510q-59.5 0 -101.5 42.5t-42 102.5t42 102.5t101.5 42.5t101.5 -42.5t42 -102.5t-42 -102.5t-101.5 -42.5zM283 601l-210 -254l-9 -11l10 -11l88 -89l10 -11l11 9l264 217q12 10 2 22.5t-22 2.5l-264 -217l21 -1l-87 90l1 -22l209 255
q10 12 -2 22t-22 -2zM257 395l64 64q11 11 -0.5 22.5t-22.5 0.5l-64 -65q-11 -11 0.5 -22.5t22.5 0.5zM842 344q-18 22 -53 43q-31 19 -66 30q-79 22 -149 17.5t-131.5 -44.5t-100.5 -112q-3 -6 -1.5 -12.5t7.5 -9.5t12 -1.5t10 7.5q35 65 90 101t118.5 39.5t135.5 -16.5
q31 -9 59 -27q19 -11 34 -25q8 -7 11 -11q11 -12 23 -1.5t1 22.5zM293 141v0v0v0v0v0v-1v-3v-9q1 -16 7 -29q18 -43 70 -43h3l3 1v0v0v0v0v0h1h1l8 2q12 3 24 1q36 -4 52 -44l-1 5v0v0v0v0v-1v-1t1 -3l2 -10q6 -16 17 -29q60 -70 228 -22v0v0v0v0v1h2q2 1 5 2q8 3 17 7
q29 14 54 36q82 69 103 192q2 6 -2 11.5t-10.5 6.5t-12 -2.5t-6.5 -10.5q-20 -110 -92 -172q-23 -20 -47 -32q-8 -4 -15 -6q-2 -1 -4 -1q0 -1 -1 -1v0v0v0v0v0q-148 -42 -195 12q-7 8 -11 19q-1 3 -1 5v2v0v0v0v0v0v0l-1 2v2q-24 58 -78 64q-17 2 -34 -1q-6 -1 -11 -3
q-2 0 -3 -1h-1v0v0v0v0v0l5 1q-31 0 -41 24q-3 8 -4 18v6v2v0v0v0v0v0v0q1 7 -3.5 12t-11 5.5t-11.5 -3.5t-6 -11zM933 376l-294 -292q-11 -11 0 -22.5t22 -0.5l294 292q12 11 0.5 22.5t-22.5 0.5zM444.5 157q13.5 0 22.5 9.5t9 22.5t-9 22.5t-22.5 9.5t-22.5 -9.5t-9 -22.5
t9 -22.5t22.5 -9.5zM508 253q13 0 22.5 9.5t9.5 23t-9.5 23t-22.5 9.5t-22.5 -9.5t-9.5 -23t9.5 -23t22.5 -9.5zM619.5 275q13.5 0 22.5 9.5t9 23t-9 23t-22.5 9.5t-22.5 -9.5t-9 -23t9 -23t22.5 -9.5zM747 259q13 0 22.5 9.5t9.5 23t-9.5 23t-22.5 9.5t-22.5 -9.5t-9.5 -23
t9.5 -23t22.5 -9.5z" />
    <glyph glyph-name="shoucangshoucang" unicode="&#xe611;" 
d="M191 769h642q52 0 89 -37l1 -1q37 -37 37 -89v-572q0 -52 -37 -89h-1q-37 -37 -89 -37h-642q-52 0 -90 37v0q-37 37 -37 89v572q0 52 37 89.5t90 37.5v0zM833 718h-642q-32 0 -54.5 -22.5t-22.5 -53.5v-572q0 -31 22.5 -53.5t54.5 -22.5h642q31 0 53.5 22.5t22.5 53.5
v572q0 32 -22.5 54t-53.5 22zM615 576q-63 0 -103 -54q-40 54 -103 54q-55 0 -94 -43t-39 -103q0 -22 7 -44t13.5 -33.5t17.5 -30.5q23 -35 70 -81.5t71 -66t40 -31.5q8 -6 17 -6t17 6q16 12 40 31.5t71 66t69 81.5q12 19 18.5 30.5t13.5 33.5t7 44q0 60 -39 103t-94 43v0z
M685 341q-21 -33 -64.5 -76t-75.5 -69l-33 -27q-14 11 -36.5 29t-69 64t-67.5 79q-33 52 -33 89q0 47 30 80t73 33q31 0 56.5 -18.5t37.5 -48.5v0v0q2 -7 9 -7t9 7v0q12 30 37.5 48.5t56.5 18.5q43 0 73 -33t30 -80q0 -37 -33 -89v0z" />
    <glyph glyph-name="shenfenzhengming" unicode="&#xe748;" horiz-adv-x="1038" 
d="M125 -49q-51 0 -87 36.5t-36 87.5v618q0 51 36 87.5t87 36.5h774q51 0 87 -36.5t36 -87.5v-618q0 -51 -36 -87.5t-87 -36.5h-774zM125 776q-34 0 -58.5 -24t-24.5 -59v-618q0 -35 24.5 -59t58.5 -24h774q34 0 58.5 24t24.5 59v618q0 35 -24.5 59t-58.5 24h-774z
M847.5 183q-8.5 0 -14.5 6t-6 15q0 55 -39.5 94.5t-95 39.5t-95 -39.5t-39.5 -94.5q0 -9 -6 -15t-14 -6t-14 6t-6 15q0 45 21.5 84t60.5 63l18 11l-15 16q-33 35 -33 84q0 51 36 87t87 36t87 -36t36 -87q0 -48 -33 -84l-15 -16l18 -11q38 -24 60 -63t22 -84q0 -9 -6 -15
t-14.5 -6zM692.5 544q-34.5 0 -58.5 -24t-24 -58.5t24 -59t58.5 -24.5t59 24.5t24.5 59t-24.5 58.5t-59 24zM173 543q-9 0 -15.5 6.5t-6.5 16t6.5 16t15.5 6.5h232q9 0 15.5 -6.5t6.5 -16t-6.5 -16t-15.5 -6.5h-232zM173 362q-9 0 -15.5 6.5t-6.5 15.5t6.5 15.5t15.5 6.5
h232q9 0 15.5 -6.5t6.5 -15.5t-6.5 -15.5t-15.5 -6.5h-232zM173 183q-9 0 -15.5 6.5t-6.5 15.5t6.5 15.5t15.5 6.5h232q9 0 15.5 -6.5t6.5 -15.5t-6.5 -15.5t-15.5 -6.5h-232z" />
    <glyph glyph-name="shouyeshouye" unicode="&#xe6ee;" 
d="M877 379l-365 342l-365 -341q-5 -5 -5.5 -12.5t4.5 -12.5t12.5 -5.5t12.5 4.5l341 318l341 -319q5 -5 12 -5q8 0 13 6q5 5 4.5 12.5t-5.5 12.5zM765.5 372q-7.5 0 -12.5 -5t-5 -13v-271h-142v189h-188v-189h-142v271q0 8 -5 13t-12.5 5t-12.5 -5t-5 -13v-307h212v189h118
v-189h212v307q0 8 -5 13t-12.5 5zM642 626h106v-95q0 -7 5 -12.5t12.5 -5.5t12.5 5.5t5 12.5v130h-141q-8 0 -13 -5t-5 -12.5t5 -12.5t13 -5z" />
    <glyph glyph-name="shouzhimingxi1" unicode="&#xe682;" 
d="M382 381v-24h107v-61h-107v-24h107v-94h38v94h107v24h-107v61h107v24h-94l123 214h-43l-112 -201l-112 201h-43l123 -214h-94zM1004 896h-887q-8 0 -13 -5.5t-5 -12.5v-250h-81q-7 0 -12.5 -5.5t-5.5 -12.5v0q0 -8 5.5 -13t12.5 -5h81v-114h-81q-7 0 -12.5 -5.5
t-5.5 -12.5v-1q0 -7 5.5 -12.5t12.5 -5.5h81v-114h-81q-7 0 -12.5 -5t-5.5 -13v0q0 -7 5.5 -12.5t12.5 -5.5h81v-114h-81q-7 0 -12.5 -5.5t-5.5 -12.5v0q0 -8 5.5 -13t12.5 -5h81v-250q0 -7 5 -12.5t13 -5.5h887q8 0 13 5.5t5 12.5v987q0 7 -5 12.5t-13 5.5zM831 -91h-684
q-5 0 -8.5 3.5t-3.5 8.5v220h46q7 0 12.5 5t5.5 13v0q0 7 -5.5 12.5t-12.5 5.5h-46v114h46q7 0 12.5 5.5t5.5 12.5v0q0 8 -5.5 13t-12.5 5h-46v114h46q7 0 12.5 5.5t5.5 12.5v1q0 7 -5.5 12.5t-12.5 5.5h-46v114h46q7 0 12.5 5t5.5 13v0q0 7 -5.5 12.5t-12.5 5.5h-46v220
q0 5 3.5 8.5t8.5 3.5h684v-951zM986 -79q0 -5 -3.5 -8.5t-8.5 -3.5h-107v951h107q5 0 8.5 -3.5t3.5 -8.5v-927v0z" />
    <glyph glyph-name="z-flower" unicode="&#xe684;" 
d="M749 776v0q-63 -2 -122 -26q-17 47 -46.5 75t-63.5 28q-35 0 -64 -27.5t-47 -73.5q-62 24 -129 24h-0.5h-0.5v0h-37l-1 -279q0 -85 60 -145t144 -60h52v-176q-37 33 -92 51q-35 11 -81 10.5t-58 -9.5q-11 -7 1.5 -36.5t43.5 -65t69 -54.5q47 -24 117 -16v-62
q0 -8 5.5 -13.5t13 -5.5t13 5.5t5.5 13.5v147l6 -4q58 -9 97 11q28 14 51.5 41t33 49t1.5 28q-9 7 -44 7t-61 -8q-56 -18 -84 -54v141h50q84 0 144 60t60 145l1 279h-37zM456 770q14 24 31 36q15 10 30 10t29 -10q17 -12 31 -36q10 -16 17 -35q-42 -23 -76 -55
q-35 33 -78 56q7 19 16 34zM574 329h-132q-69 0 -118 49t-49 119v242h1.5h0.5q64 0 122 -24q56 -24 99.5 -67.5t66.5 -99.5q25 -58 25 -121q0 -51 -16 -98zM748 497v0q0 -70 -49 -119q-36 -36 -85 -46q13 46 13 95q0 128 -84 226q42 40 94 62q54 22 112 24z" />
    <glyph glyph-name="lipinqia1" unicode="&#xe650;" 
d="M114 577h796v-42h-796v42zM947 777h-870q-32 0 -54.5 -22.5t-22.5 -54.5v-646q0 -31 22.5 -53.5t54.5 -22.5h870q32 0 54.5 22.5t22.5 53.5v287v6v353q0 32 -22.5 54.5t-54.5 22.5zM981 341v-263q0 -24 -16.5 -41t-40.5 -17h-824q-24 0 -40.5 17t-16.5 41v598
q0 24 16.5 41t40.5 17h824q24 0 40.5 -17t16.5 -41v-329v-6zM884 422l-92 -157h73v-34h-85v-48h85v-35h-85v-70h-44v70h-87v35h87v48h-87v34h75l-92 157h49q64 -117 78 -148h1q5 13 26 52l52 96h46zM114 204h111v-43h-111v43z" />
    <glyph glyph-name="youchuan" unicode="&#xe77e;" 
d="M785 101q-24 23 -56 23h-1q-33 0 -56 -24l-33 -33q-8 -8 -19 -8v0q-11 0 -18 8l-35 33q-24 24 -56 24v0q-34 0 -57 -24l-35 -35q-8 -7 -18.5 -7t-18.5 7l-36 35q-24 24 -56 24v0q-32 0 -56 -24l-57 -50q-8 -8 -8.5 -19t7 -19.5t19 -9t19.5 7.5l56 50l0.5 0.5l0.5 0.5
q8 7 19 7t18 -7l36 -35q24 -23 56 -23q33 0 56 23l36 35q8 7 18.5 7t18.5 -7l34 -34q23 -23 57 -23h1q33 0 57 24l33 33q8 7 18.5 7t18.5 -7l1 -1l57 -51q8 -7 18 -7q13 0 21 9q7 8 6.5 19.5t-9.5 18.5zM853 436v0l-96 42v122q0 18 -17 25l-172 67v18q0 23 -16 39t-39 16
t-39 -16.5t-16 -38.5v-18l-177 -69q-17 -6 -17 -25v-122l-93 -40q-11 -5 -14 -16t3 -21l143 -231q5 -7 13 -9q40 -8 68 -35l3 -3q5 -6 14 -6t14 6l3 3q38 38 93 38v0q54 0 94 -38l1 -2q6 -6 14.5 -6t14.5 6q30 30 72 37q8 1 13 9l144 231q6 10 3 21.5t-14 15.5zM703 502
l-172 73q-19 8 -39 0l-174 -75v79l195 76l190 -74v-79z" />
    <glyph glyph-name="1" unicode="&#xe618;" 
d="M873 832h-726q-25 0 -42.5 -17t-17.5 -42v-776q0 -20 12 -36l48 95l61 -119l60 119l61 -119l60 119l61 -119l60 119l61 -119l60 119l61 -119l60 119l61 -119l60 119l49 -95q12 16 12 36v776q0 25 -18 42t-43 17zM410 251q-31 -32 -78 -41v-55q-3 0 -16 -5t-18 -5t-12 3.5
t-11 4.5v54h-5q-19 0 -35 1t-30 3q-14 3 -28 6.5t-29 8.5q1 15 6 30t12 31q25 -9 47.5 -12t47.5 -3q39 0 59.5 10.5t20.5 35.5q0 12 -5.5 20t-14.5 13t-20 8.5t-21 7.5l-32 12q-20 7 -36.5 15t-28 19t-18 25.5t-6.5 36.5q0 45 31 71.5t85 32.5v54q13 3 26 3q3 0 10 0.5
t10.5 0.5t10.5 -1v-55q11 0 43 -6q22 -5 47 -12q-4 -29 -20 -58q-8 3 -18 6q-9 3 -20 5t-24 3.5t-30 1.5q-10 0 -21 -1.5t-19.5 -5.5t-13.5 -11.5t-5 -18.5q0 -10 4 -17.5t11 -12t16.5 -8t18.5 -7.5l36 -12q23 -8 42 -16.5t32 -20t20 -28t7 -41.5q0 -41 -28 -70zM879 268
q0 -8 -8 -8h-321q-8 0 -8 8v55q0 8 8 8h321q8 0 8 -8v-55zM879 420q0 -8 -8 -8h-321q-8 0 -8 8v55q0 8 8 8h321q8 0 8 -8v-55zM879 563q0 -8 -8 -8h-321q-8 0 -8 8v55q0 9 8 9h321q8 0 8 -9v-55z" />
    <glyph glyph-name="mudedi1" unicode="&#xe652;" 
d="M979 537.5q-26 77.5 -74.5 142.5t-112 108.5t-137 67.5t-154 23.5t-157.5 -27t-141.5 -75t-108 -112.5t-67.5 -137.5t-23.5 -154.5t27 -159t75 -142.5t112 -108t137 -68t154 -24t157.5 27t141.5 75.5t107.5 113t67.5 137.5t23.5 154.5t-27 158.5zM128 588q8 12 18 30
t15.5 27.5t14.5 22t20 24.5q0 2 1.5 4t6.5 6t12 4.5t20.5 -5t30.5 -19.5q16 -13 30.5 -15.5t23 2t19.5 9.5t18 5q10 -1 18 -65q12 -98 -15 -112q-14 -8 -37 13q-17 16 -33.5 23.5t-42 13.5t-37.5 10q-3 3 -15 1t-19 -4t-20 -7q-13 -4 -19 -5.5t-13.5 -2.5t-8.5 3t1.5 13
t10.5 24zM646 -42q-68 -23 -138.5 -23.5t-134.5 21t-119.5 59.5t-98 94.5t-65.5 124.5q-48 142 0 284q18 -15 58 -12q3 0 26 2.5t32.5 2t28.5 -3.5t36.5 -13t35.5 -27q63 -59 102 6q33 56 27 150q-6 86 -43 113q-16 12 -27 12t-17.5 -6t-14 -12t-20.5 -3.5t-33 18.5
q-3 3 -7 5q42 27 90 43q68 23 138.5 23.5t134.5 -20.5t119.5 -59.5t98 -95t65.5 -124.5q16 -48 21 -98l-0.5 0.5l-0.5 0.5q-2 2 -6 5t-19.5 9t-34 8t-49.5 -3t-65 -19q-6 -3 -10.5 4t-8.5 16.5t-14 16.5t-24 6q-36 -4 -77 -68q-48 -73 -40 -129q9 -61 91 -49
q61 8 101.5 -14.5t48.5 -58.5q6 -28 13 -45q-80 -99 -200 -141zM903 168q-3 -13 -19 7q-42 54 -50 63q-9 10 -19 18q-16 16 -43.5 18.5t-92.5 -8.5q-30 -5 -25 28q6 41 41 92q4 7 6 8q12 7 17 2.5t11 -14.5t31.5 -13t77.5 9q26 6 52 0t38 -15l12 -9q8 -37 3.5 -69t-10.5 -47
t-16 -35.5t-14 -34.5z" />
    <glyph glyph-name="gouwu-copy" unicode="&#xe615;" 
d="M794 688v200h-564v-200h-167v-686q0 -47 34 -80t83 -33h664q49 0 83 33t34 80v686h-167zM329 789h366v-101h-366v101zM512 90q-5 2 -13.5 6t-33 17.5t-47 29t-50 40t-47.5 50.5t-33.5 61.5t-13.5 72.5q0 49 33.5 82.5t83.5 33.5q62 0 109 -92q3 -8 11.5 -8t12.5 8
q44 92 109 92q50 0 83.5 -33.5t33.5 -82.5q0 -132 -159 -234q-43 -28 -79 -43z" />
    <glyph glyph-name="lipinqiaquan" unicode="&#xe634;" 
d="M898 57h-772q-31 0 -52.5 22t-21.5 53v325h921v-325q0 -31 -22 -53t-53 -22zM66 443v-311q0 -25 17.5 -43t42.5 -18h772q25 0 43 18t18 43v311h-893zM878 151h-447v71h447v-71zM445 165h419v43h-419v-43zM878 251h-447v71h447v-71zM445 265h419v43h-419v-43zM973 552
h-921v49q0 30 21.5 52t52.5 22h772q31 0 53 -22t22 -52v-49zM66 566h893v35q0 25 -18 42.5t-43 17.5h-772q-25 0 -42.5 -17.5t-17.5 -42.5v-35z" />
    <glyph glyph-name="gentuanyou" unicode="&#xe651;" 
d="M757 551q-11 13 0 26q46 54 99 96q10 7 11 14.5t-6 13.5t-11.5 8.5t-10.5 5.5q-47 19 -101.5 19t-101 -13t-101 -26t-101 -19t-101.5 7v-344q55 -13 101.5 -6.5t101.5 19t101.5 25.5t101 13t101.5 -19q14 -6 19 2q6 9 -2 24q-47 83 -100 154zM262.5 734q-14.5 0 -25 -10
t-10.5 -25v-667q0 -14 10.5 -24t25 -10t25 10t10.5 24v667q0 15 -10.5 25t-25 10z" />
    <glyph glyph-name="liulanlishicopy" unicode="&#xe64b;" 
d="M512 -67q92 0 175.5 36t143.5 96t96 143.5t36 175.5t-36 175.5t-96 143.5t-143.5 96t-175.5 36t-175.5 -36t-143.5 -96t-96 -143.5t-36 -175.5t36 -175.5t96 -143.5t143.5 -96t175.5 -36zM512 -128q-139 0 -257 68.5t-186.5 186.5t-68.5 257t68.5 257t186.5 186.5
t257 68.5t257 -68.5t186.5 -186.5t68.5 -257t-68.5 -257t-186.5 -186.5t-257 -68.5zM512 364q-8 0 -14 6t-6 14v287q0 8 6 14t14 6t14 -6t6 -14v-267h267q8 0 14 -6t6 -14t-6 -14t-14 -6h-287z" />
    <glyph glyph-name="dangdiyou" unicode="&#xe61a;" 
d="M512 834q-92 0 -175.5 -36t-143.5 -96t-96 -143.5t-36 -175.5t36 -175.5t96 -143.5t143.5 -96t175.5 -36t175.5 36t143.5 96t96 143.5t36 175.5t-36 175.5t-96 143.5t-143.5 96t-175.5 36zM512 -37q-114 0 -210.5 56.5t-153 153t-56.5 210.5t56.5 210.5t153 153
t210.5 56.5t210.5 -56.5t153 -153t56.5 -210.5t-56.5 -210.5t-153 -153t-210.5 -56.5zM510 546q-45 0 -77 -32t-32 -76.5t32 -76.5t76.5 -32t76.5 32t32 76.5t-31.5 76.5t-76.5 32zM510 359q-32 0 -55 23t-23 55.5t23 55t55 22.5t55 -22.5t23 -55t-23 -55.5t-55 -23z
M512.5 629q-87.5 0 -149.5 -62t-62 -149v-1q2 -93 99 -194q13 -13 27.5 -26t25.5 -22.5t20.5 -16.5t15 -11t6.5 -5q8 -5 17 -5t17 5q3 2 15 11t36 29t45 41q99 103 98 195q0 87 -61.5 149t-149 62zM512 168q-7 5 -19 14t-43 36.5t-54.5 55.5t-43.5 68t-20 76q0 74 53 127
t127 53t127 -53t53 -127q1 -36 -18 -75t-45 -69t-53 -55t-45 -38t-19 -13z" />
    <glyph glyph-name="quanbu1" unicode="&#xe681;" 
d="M113 787q-33 0 -56 -23.5t-23 -56t23 -56t56 -23.5t56 23.5t23 56t-23 56t-56 23.5zM306 760q-15 0 -26.5 -11.5t-11.5 -27.5v-27q0 -16 11.5 -27.5t26.5 -11.5h647q15 0 26.5 11.5t11.5 27.5v27q0 16 -11.5 27.5t-26.5 11.5h-647zM113 454q-33 0 -56 -23t-23 -56t23 -56
t56 -23t56 23t23 56t-23 56t-56 23zM268 361q0 -16 11.5 -27t26.5 -11h647q15 0 26.5 11t11.5 27v28q0 15 -11.5 26.5t-26.5 11.5h-647q-15 0 -26.5 -11.5t-11.5 -26.5v-28zM113 121q-33 0 -56 -23t-23 -56t23 -56t56 -23t56 23t23 56t-23 56t-56 23zM268 28
q0 -15 11.5 -26.5t26.5 -11.5h647q15 0 26.5 11.5t11.5 26.5v28q0 16 -11.5 27t-26.5 11h-647q-15 0 -26.5 -11t-11.5 -27v-28z" />
    <glyph glyph-name="sheying" unicode="&#xe640;" 
d="M511.5 511q-84.5 0 -144.5 -60t-60 -144.5t60 -144.5t144.5 -60t144.5 60t60 144.5t-60 144.5t-144.5 60zM511 434q-52 0 -89.5 -37t-37.5 -90l-26 1q0 63 45 107.5t108 44.5v-26zM972 664h-141q-63 9 -80 55l-9 48q-17 52 -98 51h-266q-38 1 -64 -13t-33 -38l-5 -26v0
l-3 -16q-16 -53 -96 -61h-126q-21 0 -36 -14.5t-15 -36.5v-613q0 -22 15 -37t36 -15h921q21 0 36 15t15 37v613q0 22 -15 36.5t-36 14.5zM511.5 51q-105.5 0 -180.5 75t-75 180.5t75 180.5t180.5 75t180.5 -75t75 -180.5t-75 -180.5t-180.5 -75zM895 485q-21 0 -36 15
t-15 36.5t15 36.5t36 15t36 -15t15 -36.5t-15 -36.5t-36 -15z" />
    <glyph glyph-name="baoxian" unicode="&#xe61b;" 
d="M958 351q-2 3 -5 8t-14 18t-22 23t-26.5 18t-29.5 8q-23 0 -49 -19.5t-41 -38.5l-15 -20q-2 4 -6 9t-16.5 18.5t-24 23.5t-27 18.5t-28.5 8.5q-42 0 -98 -70v-298q0 -45 -9.5 -76t-27.5 -50.5t-44 -28.5q-27 -8 -62 -8q-32 0 -57.5 9.5t-42.5 27.5q-18 18 -27 43
q-10 26 -10 57v29h82q0 -63 10 -77q14 -20 45 -20q6 0 14 1.5t14 3.5l5 2q15 10 19 18q2 4 4.5 11.5t3.5 12.5t1 6q2 23 2 37v305q-59 67 -98 67q-21 0 -48.5 -19.5t-44.5 -38.5l-17 -19q-7 9 -18.5 21.5t-38.5 34t-46 21.5q-11 0 -25.5 -8t-27 -19.5t-23.5 -22.5t-17.5 -19
t-5.5 -8q-1 8 -0.5 22.5t6.5 57t18 82t40.5 89t68.5 87t106 67t149 37.5l59 82l56 -82q261 -16 351 -228q43 -105 38 -214v0zM958 351z" />
    <glyph glyph-name="meishi" unicode="&#xe61c;" horiz-adv-x="1078" 
d="M684 424q64 -30 147.5 -9t149.5 87q81 80 94.5 181t-48.5 163q-62 61 -163 48t-182 -94q-66 -66 -87.5 -149t9.5 -147l-550 -548l80 -79l388 386l388 -387l79 80l-388 386zM302 323l160 159l-396 393q-66 -65 -66 -158t66 -159z" />
    <glyph glyph-name="umbra" unicode="&#xe61d;" horiz-adv-x="1025" 
d="M957 375.5q-5 -5.5 -12 -5.5q-6 0 -13 6q-26 25 -50 37.5t-55 12.5q-37 0 -69.5 -20t-55.5 -53q-4 -5 -9.5 -15t-7.5 -13q-6 -9 -15 -9q-10 0 -16 9q-2 3 -8 13l-9 15q-24 33 -56 53t-69 20t-69 -20t-55 -53q-4 -5 -10 -15q-5 -10 -8 -13q-5 -9 -15 -9q-9 0 -15 9
q-3 3 -8 13q-6 10 -10 15q-23 33 -55.5 53t-69.5 20q-31 0 -55 -12.5t-50 -37.5q-7 -6 -13 -6q-7 0 -12 5.5t-5 12.5q0 2 1 4q24 99 93 173t161 111t195 37q76 0 148.5 -22t133.5 -62t105.5 -101.5t62.5 -135.5v-4q0 -7 -5 -12.5zM875 510q-42 57 -98 94q-56 38 -124.5 58
t-140.5 20q-97 0 -184 -34q-86 -35 -150 -104q-49 -52 -74 -119q13 9 24 15q31 16 69 16q46 0 85 -25q38 -23 65 -60q3 -6 8 -13q5 7 8 12q27 38 64 61q40 25 85 25t85 -25q37 -23 64 -60q4 -6 8 -13q5 8 8 12q27 38 65 61q40 25 85 25q39 0 69 -16q12 -6 24 -15
q-16 46 -45 85zM512 834h30v-90h-30v90zM404 -36q45 0 76.5 32t31.5 77v315h30v-315q0 -57 -40.5 -98t-98 -41t-98 41t-40.5 98h30q0 -45 32 -77t77 -32z" />
    <glyph glyph-name="yangshenghuli" unicode="&#xe624;" 
d="M879 134q15 3 28.5 -5t16.5 -21q3 -16 -5 -29t-22 -17l-123 -26q-14 -3 -24 4q-2 0 -3 2l-2 2v0q-4 4 -4 8l-57 101h-555q-8 0 -14 6q-5 5 -9 14l-2 41q0 19 19 23l561 36q19 3 29 -12l86 -145l80 18v0zM858.5 163q-38.5 0 -65.5 27t-27 65t27 65t65.5 27t65 -27
t26.5 -65t-26.5 -65t-65 -27zM858 329q-30 0 -51 -21t-21 -51q0 -29 21.5 -50.5t50.5 -21.5q30 0 51 21t21 51t-21 51t-51 21zM766 24q-14 0 -23 8l-1.5 1t-2.5 2.5t-2 2.5q-2 2 -6 10l-55 94h-549q-12 0 -23 11q-10 6 -10 20l-2 41q0 14 8 23q11 10 21 10l561 37
q26 5 39 -17l82 -139l74 18q19 4 34 -6q18 -10 21 -28q4 -19 -6 -36t-29 -22l-123 -26q-1 -2 -3 -3t-3 -1h-2zM688 263h-4l-563 -37q-4 0 -8 -4q-2 -2 -2 -8l2 -41q0 -4 4 -8t8 -4h561l62 -105l4 -8l2 -2q9 -6 16 -4l123 27q11 3 16.5 12t3.5 20q-3 11 -12 17q-6 4 -20 4
l-90 -21l-91 154l-4 6q-3 2 -8 2zM340 290q-4 0 -8 4q-2 2 -2 8l41 201q5 22 17 36.5t24.5 18.5t24.5 6.5t18 -0.5q22 2 45 -9.5t32 -27.5l86 -120l60 -11q22 -3 31 -18q11 -14 8 -37q-3 -20 -19.5 -31.5t-35.5 -7.5v0l-93 16q-15 4 -28 17l-2 2q-1 2 -3 5t-4 5l-22 41
l-16 -82q0 -8 -11 -8l-143 -8v0zM449 544q-45 0 -58 -45l-39 -187l123 6l21 101q0 3 2.5 5.5t5.5 2.5q6 0 10 -4l37 -66q2 -4 4 -6l2 -2q8 -8 16 -8l95 -16q10 -2 19.5 4.5t10.5 17.5q3 11 -4 21t-18 10l-64 12q-2 0 -6 4l-88 125q-8 12 -26 20t-35 7q-2 -2 -8 -2z
M520.5 560q-38.5 0 -65.5 27t-27 65.5t27 65t65.5 26.5t65 -26.5t26.5 -65t-26.5 -65.5t-65 -27zM520 726q-30 0 -50.5 -21t-20.5 -51q0 -29 21 -50t50 -21q31 0 51.5 21t20.5 50t-22 50.5t-50 21.5zM670 77h-588q-10 0 -10 10t10 10h586q10 0 10 -10t-8 -10z" />
    <glyph glyph-name="shangcheng-copy-copy" unicode="&#xe61f;" 
d="M858 621h-98q-35 88 -101.5 143t-146.5 55t-147.5 -55t-102.5 -143h-96q-19 0 -31.5 -13t-12.5 -32v-589q0 -19 12.5 -32t31.5 -13h692q20 0 32 10t12 29v589q0 19 -13 35t-31 16zM358 691q73 83 154 83q86 0 154 -76q13 -18 42 -77h-394q25 51 44 70zM172 -5v575h78
q0 -4 -3.5 -13.5t-3.5 -12.5q-10 -5 -17.5 -18t-7.5 -27q0 -23 15 -37t36 -14q23 0 37 15.5t14 35.5q0 15 -9 27.5t-23 17.5q0 13 6 26h429q6 -25 6 -26v0q-25 -9 -25 -45q0 -23 15 -37t36 -14q23 0 37.5 15.5t13.5 35.5q-2 40 -32 45q0 4 -2 13t-3 13h80v-575h-677z" />
    <glyph glyph-name="guonei" unicode="&#xe620;" 
d="M950 699l-109 92q-13 11 -29 5l-84 -35l-68 -42q-15 -10 -13 -27l-2 -82l-63 -47l-97 -18l-74 40l-45 89q-6 11 -16.5 14.5t-21.5 -1.5l-99 -49q-2 -1 -3.5 -3t-2.5 -4t-1.5 -5t-0.5 -5v-6v-5v-32l-41 -34h-38q-11 0 -19 -8l-50 -48q-9 -9 -9 -20.5t9 -20.5l44 -42
l25 -121q2 -9 10 -16l92 -73q8 -6 17 -6h102v-61q0 -12 10 -24t21 -12h110l50 -27q15 -10 30 -1l69 39l96 36q7 3 12 10l60 83q2 1 5 4.5t5.5 6.5t2.5 6v78q0 8 -16 23l-35 34l45 29q6 4 9 11l32 63l79 54q11 9 11 23v113q1 13 -9 22zM897 578l-16 -15l-50 -35q-6 -4 -9 -10
l-31 -62l-68 -44q-11 -8 -12 -21t8 -23l52 -50v-61l-50 -68l-92 -35l-58 -33l-43 30q-8 5 -16 5l-87 -1v62q0 12 -9.5 22t-21.5 10h-126l-78 63l-20 113q-2 8 -8 14l-30 28l26 21h34q11 0 19 8l50 49q8 8 8 20l-4 8l63 51l38 -72q4 -8 11 -12l89 -49q8 -4 17 -3l108 13
q7 1 12 5l98 67q9 6 7 21v94l46 24l64 26l79 -81v-79zM614 45h-79q-13 0 -22 -9.5t-9 -22.5t9 -22t22 -9h79q13 0 22 9t9 22t-9 22.5t-22 9.5zM847 158l-27 -15q-11 -7 -14.5 -19.5t3 -23.5t19 -14.5t24.5 2.5l27 16q11 6 14.5 19t-3 24t-19 14.5t-24.5 -3.5z" />
    <glyph glyph-name="dawan" unicode="&#xe600;" 
d="M466 494v59h468q9 0 15 6.5t6 15.5v21q0 9 -6 15t-15 6h-468v85h468q9 0 15 6.5t6 15.5v21q0 9 -6 15t-15 6h-702q-9 0 -15 -6t-6 -15v-21q0 -9 6 -15.5t15 -6.5h21v-85h-21q-9 0 -15 -6t-6 -15v-21q0 -9 6 -15.5t15 -6.5h21v-59h-217v-26q0 -130 67 -241.5t182 -173.5
l29 -41q3 -16 16 -26.5t30 -10.5h297q17 0 30 10.5t16 26.5l29 41q115 62 182 173.5t67 241.5v26h-515zM377 702h43v-85h-43v85zM420 553v-59h-43v59h43zM292 702h43v-85h-43v85zM292 553h43v-59h-43v59zM703 95l-5 -3l-45 -62v-4h-289v4l-45 62l-5 3q-99 52 -159 144.5
t-67 203.5h841q-7 -111 -67 -203.5t-159 -144.5z" />
    <glyph glyph-name="shouyeshouye1" unicode="&#xe625;" 
d="M922 377l-413 386l-413 -385q-6 -5 -6.5 -13.5t5.5 -14.5t14 -6.5t14 5.5l386 359l385 -360q6 -5 14 -5q9 0 15 6q5 6 5 14t-6 14v0zM922 377zM796 369q-9 0 -14.5 -6t-5.5 -14v-306h-160v213h-214v-213h-160v306q0 8 -6 14t-14 6t-14 -6t-6 -14v-346h240v213h134v-213
h240v346q0 8 -6 14t-14 6v0zM796 369zM656 656h120v-107q0 -8 5.5 -14t14 -6t14.5 6t6 14v147h-160q-9 0 -14.5 -6t-5.5 -14.5t5.5 -14t14.5 -5.5v0zM656 656z" />
    <glyph glyph-name="zhuti" unicode="&#xe75b;" horiz-adv-x="1026" 
d="M515 -128q-104 0 -198.5 40.5t-162.5 108.5t-108.5 162.5t-40.5 198.5t40.5 198.5t108.5 162.5t162.5 108.5t198.5 40.5t198.5 -40.5t162.5 -108.5t108.5 -162.5t40.5 -198.5t-40.5 -198.5t-108.5 -162.5t-162.5 -108.5t-198.5 -40.5v0zM515 841q-93 0 -178 -36.5
t-146.5 -98t-98 -146.5t-36.5 -178t36.5 -178t98 -146.5t146.5 -98t178 -36.5t178 36.5t146.5 98t98 146.5t36.5 178t-36.5 178t-98 146.5t-146.5 98t-178 36.5v0zM419 95h192v-96h-192v96zM515 765q-6 0 -17.5 -0.5t-43.5 -5.5t-61.5 -13.5t-65 -27t-61.5 -43t-43.5 -64.5
t-17.5 -90q0 -181 148 -324q37 -35 66 -54h193q9 5 23 16t51 47.5t65 77t51 105t23 132.5q0 50 -17 90t-44.5 64.5t-60.5 43t-66 27t-60.5 13.5t-44.5 5l-17 1v0zM253 521q0 125 147 175q-9 -12 -19 -28q-85 -153 48 -471q-176 148 -176 324v0zM515 190h-32
q-137 314 -61 453q14 26 35.5 43.5t34 22.5t23.5 7q11 -2 23.5 -7t33.5 -22.5t35 -42.5q77 -140 -60 -454h-32zM601 196q133 318 48 472q-7 12 -19 28q148 -50 148 -175q0 -174 -177 -325v0z" />
    <glyph glyph-name="ziyouxing" unicode="&#xe6c6;" 
d="M512 832q-122 0 -225 -60t-163 -163t-60 -225t60 -225t163 -163t225 -60t225 60t163 163t60 225t-60 225t-163 163t-225 60zM515.5 643q26.5 0 45.5 -19t19 -45.5t-19 -45.5t-45.5 -19t-45.5 19t-19 45.5t19 45.5t45.5 19zM692 377q-76 -38 -157 3q3 -20 12 -43v-1
q22 -10 42.5 -23.5t42.5 -34.5t37.5 -51t20.5 -65q2 -14 -6 -24.5t-21 -12t-23.5 6t-12.5 21.5q-12 82 -107 126q-27 -92 -161 -151q-6 -3 -13 -3q-21 0 -29 19q-6 12 -1 24.5t17 17.5q38 17 65.5 37t39 35t17.5 29.5t6.5 20.5t0.5 8q-3 12 4 22q-10 36 -9 67
q-42 -23 -42 -64q0 -13 -9.5 -22.5t-22.5 -9.5t-22.5 9.5t-9.5 22.5q0 33 14.5 60t36.5 43.5t44 25.5t42 13q18 3 29 -11l9.5 -9.5t21 -16.5t32 -17t39.5 -6t45 11q11 6 24 1.5t18.5 -16t1.5 -24t-16 -18.5z" />
    <glyph glyph-name="all" unicode="&#xe621;" 
d="M461 410h25v243q0 101 -71 172t-172 71t-172 -71t-71 -172t71 -172t172 -71h218zM51 652.5q0 79.5 56.5 136t136 56.5t135.5 -56.5t56 -135.5v-218l26 26h-218q-79 0 -135.5 56t-56.5 135.5zM461 307l-26 26v-218q0 -79 -56 -135.5t-135.5 -56.5t-136 56.5t-56.5 136
t56.5 135.5t135.5 56h218zM0 115q0 -101 71 -172t172 -71t172 71t71 172v243h-243q-101 0 -172 -71t-71 -172zM563 461l26 -26v218q0 79 56 135.5t135.5 56.5t136 -56.5t56.5 -136t-56.5 -135.5t-135.5 -56h-218zM1024 653q0 101 -71 172t-172 71t-172 -71t-71 -172v-243
h243q101 0 172 71t71 172zM1024 115q0 101 -71 172t-172 71h-243v-243q0 -101 71 -172t172 -71q57 0 107 25q10 5 13.5 15t-1.5 19.5t-15 13t-19 -1.5q-40 -20 -85 -20q-80 0 -136 56.5t-56 135.5v218l-26 -26h218q79 0 135.5 -56t56.5 -136q0 -28 -8 -54q-3 -10 2 -19.5
t15 -12.5t19.5 2t12.5 15q10 34 10 69z" />
    <glyph glyph-name="menpiao" unicode="&#xe627;" 
d="M915 294l45 -44q-56 0 -95.5 39t-39.5 95t39.5 95t95.5 39l-45 -44v149q0 6 -4.5 10.5t-10.5 4.5h-776q-6 0 -10.5 -4.5t-4.5 -10.5v-149l-45 44q56 0 95.5 -39t39.5 -95t-39.5 -95t-95.5 -39l45 44v-149q0 -6 4.5 -10.5t10.5 -4.5h776q6 0 10.5 4.5t4.5 10.5v149z
M960 145q0 -24 -17.5 -41.5t-42.5 -17.5h-776q-25 0 -42.5 17.5t-17.5 41.5v149q37 0 63.5 26.5t26.5 63.5t-26.5 63.5t-63.5 26.5v149q0 24 17.5 41.5t42.5 17.5h776q25 0 42.5 -17.5t17.5 -41.5v-149q-37 0 -63.5 -26.5t-26.5 -63.5t26.5 -63.5t63.5 -26.5v-149zM616 593
v-15h45v15v30v15h-45v-15v-30zM616 503v-15h45v15v30v15h-45v-15v-30zM616 414v-15h45v15v30v15h-45v-15v-30zM616 324v-15h45v15v30v15h-45v-15v-30zM616 235v-15h45v15v30v15h-45v-15v-30zM616 145v-15h45v15v30v15h-45v-15v-30z" />
    <glyph glyph-name="gangaotai" unicode="&#xe62d;" 
d="M876 400q-36 -40 -98.5 -38.5t-93.5 35.5q-44 48 -103 44t-87 -54q18 57 74 94q77 50 165 28l2 7q-92 23 -171 -29q-54 -35 -75 -89q13 75 53 128.5t93 77t114 24t115.5 -23.5t98.5 -74t61 -119q-38 35 -77.5 31t-70.5 -42v0zM813 524l-31 -12l-24 22l2 -32l-29 -17
l32 -8l7 -32l18 28l32 -4l-21 25l14 30v0zM483 375q2 12 6 23q-2 -15 -3 -24l-1.5 0.5l-1.5 0.5v0zM471 383q5 -3 12 -8l-0.5 -1t-0.5 -2q-7 6 -11 11v0zM405 482q-24 88 24 165l-7 4q-50 -80 -25 -171q18 -63 63 -99q-68 35 -106.5 89.5t-45.5 112t12 115.5t58.5 103
t101 70.5t132.5 21.5q-45 -23 -53.5 -63.5t18.5 -81.5q18 -32 14.5 -68.5t-24 -69t-47.5 -44.5q-59 -26 -73.5 -83.5t24.5 -99.5q-48 34 -66 99v0zM444 670l7 -32l17 28l33 -4l-21 25l14 30l-31 -12l-24 23l2 -33l-29 -16l32 -9v0zM479 369q-11 6 -19 12q10 -5 22 -10
q-1 0 -2 -1l-1 -1v0zM469 360q4 4 10 9l1 -1t2 -1q-6 -4 -13 -7v0zM353 328q-91 4 -150 73l-6 -4q61 -73 156 -77q64 -3 112 28q-40 -40 -87 -61.5t-91.5 -23t-88 11.5t-79 39t-62.5 63t-41 80t-12.5 93.5t21.5 100.5q8 -50 43.5 -70.5t83.5 -7.5q50 13 100.5 -25.5
t55.5 -84.5q7 -65 57.5 -96t103.5 -7q-48 -36 -116 -32v0zM211 475l-31 -12l-24 22l2 -33l-29 -16l32 -8l7 -33l18 28l32 -4l-21 26l14 30v0zM484 363q-10 -9 -19 -15l18 18l0.5 -1.5l0.5 -1.5v0zM489 351q-2 5 -5 12l1 0.5t2 1.5l2 -14v0zM485 231q-16 -41 -46.5 -72
t-70.5 -47l3 -8q41 17 73 49.5t48 74.5q23 60 7 116q26 -52 32 -103t-6 -93.5t-38 -79.5t-61.5 -62.5t-79.5 -40t-89.5 -14.5t-93 17.5t-88.5 51.5q49 -8 79.5 19t33.5 77q3 52 55.5 88t97.5 26q64 -13 109.5 25t38.5 96q19 -57 -4 -120v0zM355 131l-31 -12l-24 23l2 -33
l-29 -16l32 -9l7 -32l18 28l33 -4l-22 25l14 30v0zM491 366q6 -12 8 -22q-6 13 -11 22h1.5h1.5v0zM504 367q-5 0 -13 -1l-0.5 1t-0.5 2l14 -2v0zM695 178h8q-3 45 -24 85t-57 69q-50 40 -108 42q75 12 138.5 -9.5t102.5 -64t58 -101t13.5 -117.5t-40 -115.5t-94.5 -94.5
q22 46 6 82.5t-63 54.5q-24 9 -41.5 32t-25 49.5t-6.5 53.5t12 46q32 57 10 111.5t-80 65.5q60 1 113 -41q72 -57 78 -148v0zM677 115l7 -32l18 27l33 -3l-21 25l13 30l-30 -12l-25 22l2 -33l-29 -16l32 -8v0zM491 374q12 1 23 0q-15 -2 -24 -4v2t1 2v0zM486 373h1v0v0h-1v0
zM486 369l-1 4h0.5h0.5v-1.5v-2.5v0v0zM486 369v0v0v0v0zM485 369h1v0h-1v0zM486 369v0v0v0v0zM486 369v0v0v0v0v0zM486 369h-1h1v0v0v0zM486 369l-2 -3h-0.5h-0.5q0 1 1 2t2 1v0v0zM486 369v0v0v0v0zM486 369v0v0v0v0zM486 365v0v4v0v-2v-2v0zM486 369v0v0v0v0v0zM486 369
v0v0v0v0v0zM486 369v0v0v0v0zM486 369v0v0v0v0zM486 369v0v0v0v0zM486 369v0v0v0v0zM486 369v0v0v0v0zM486 369v0v0v0v0v0zM486 369v0v0v0v0v0zM486 369v0v0v0v0zM486 369v0v0v0v0zM486 369v0v0v0v0zM487 373v0l-1 -4v0q0 1 0.5 2t0.5 2v0zM489 371v-0.5t1 -0.5
q-1 0 -2.5 -0.5l-1.5 -0.5l3 2v0zM490 370v0v0v0v0zM490 369h-1q1 0 1 0.5v0.5v-1v0zM489 369h-3h2h2h-1v0zM488 366v0v0q-1 0 -1.5 1.5l-0.5 1.5l2 -3v0zM488 366l-1 -1l1 1v0v0zM487 365h-1h1v0v0v0v0zM483 366v1v-1v0v0zM482 367v0v0v0h1h-1v0zM482 368l3 1l-1.5 -1
l-1.5 -1v1v0zM482 370v0.5v0.5l1.5 -0.5t2.5 -1.5l-4 1v0zM482 371v0v0v0v0zM482 372h0.5h0.5l-1 -1v1v0v0zM483 372l2 -3q0 1 -1 2l-1 1v0v0zM486 374v-1v0v1v0zM494 387q-2 -6 -3 -13q-1 0 -2 -0.5t-2 -0.5q3 7 7 14v0zM494 387z" />
    <glyph glyph-name="shouyexiangdao" unicode="&#xe767;" 
d="M922 347l-104 359q-5 20 -27 22q-22 4 -32 -17v0l-186 -347q-1 0 -1 1l1 -3v-3l1 -1q3 -5 8.5 -10.5t8.5 -8t12.5 -9l9.5 -6.5q3 1 13 4l42 80l211 -100h1q4 -2 8 -2h4h1q13 0 22.5 9.5t9.5 23.5q-2 1 -3 8v0zM625 325v0q-25 23 -54 40q-35 20 -67 29q40 24 63.5 65.5
t23.5 89.5q0 74 -53 127t-127.5 53t-127.5 -53t-53 -127q0 -48 23 -88.5t62 -64.5q-99 -30 -163 -114.5t-64 -192.5v-63h640v63q1 69 -26.5 130t-76.5 106v0z" />
    <glyph glyph-name="sheying1" unicode="&#xe62b;" 
d="M925 719h-166l-71 92q-8 10 -20 10h-301q-13 0 -20 -11l-67 -91h-180q-34 0 -58 -23.5t-24 -57.5v-571q0 -34 24 -58t58 -24h825q33 0 57 24t24 58v571q0 33 -24 57t-57 24v0zM68 638q0 13 9 22.5t22 9.5h193q13 0 20 10l67 91h276l72 -92q7 -9 19 -9h178q13 0 22 -9.5
t9 -22.5v-572q0 -13 -9 -22t-22 -9h-825q-13 0 -22.5 9.5t-9.5 22.5v571h1zM68 638zM532 105q101 0 172 71.5t71 172t-71 172t-172 71.5t-172 -71.5t-71 -172t71 -172t172 -71.5v0zM532 542q80 0 137 -56.5t57 -136.5t-57 -137t-137 -57t-137 57t-57 137t57 136.5t137 56.5
v0zM532 542zM860 532q14 0 24.5 10t10.5 25q0 14 -10 24.5t-25 10.5q-14 0 -24.5 -10.5t-10.5 -25t10.5 -24.5t24.5 -10v0zM860 532z" />
    <glyph glyph-name="jingwaiyoumudedi" unicode="&#xe6e4;" horiz-adv-x="1026" 
d="M661 684q100 -65 146 -96q-35 -38 -40 -43q-10 -9 -24 -9q-8 -1 -25.5 0.5t-26.5 1.5q-4 -1 -7.5 -3.5t-8.5 -6.5t-7 -6q2 -2 12.5 -9.5t24 -16t18.5 -12.5q14 -10 22 -25l25 -59q3 1 7 3.5t11.5 10.5t7.5 16q-1 15 2 46q2 12 6 16q10 7 53 39q10 -16 11 -18
q7 -14 19 -38.5t22 -44.5t19 -37q8 -15 16 -16q10 -2 19.5 9t8.5 22q-13 108 -22 174q-3 26 12 39q55 47 62 85q5 25 -19 24q-12 -1 -30 -10q-29 -12 -68 -41q-16 -11 -33 -7q-24 7 -51.5 13.5t-60 14.5t-51.5 13q-25 6 -32.5 1.5t-17.5 -30.5v0zM699 357q3 3 8 14
q10 22 -4.5 49t-41 40.5t-46.5 0.5q-12 -10 -40.5 -36t-44 -39.5t-39.5 -33t-46.5 -34.5t-46.5 -28q-126 -70 -308 -104q-27 -1 -32 13t17 29q10 8 3 7q-17 -1 -47 -24q-26 -20 -30 -41q-1 -5 0.5 -10.5t8.5 -14.5t19 -15t35.5 -10t55.5 -2q146 14 233 45q104 37 179 79
t167 115v0zM588 866v0v0v0zM582 866h2h2h0.5h1.5h-6v0zM977 363q-7 -1 -10 -2t-8 -8t-9 -21q-7 -27 -22 -56q-15 -17 -26.5 -21t-34.5 3q-30 26 -62 34.5t-55.5 0.5t-40.5 -27t-17.5 -49.5t13.5 -66.5q27 -58 -9 -93q-28 -28 -63 -15q-36 14 -42 65q5 47 -7.5 74.5t-36 32.5
t-49 -2t-49 -28t-34.5 -47q-12 -22 -16.5 -29.5t-14.5 -23t-15 -20t-15 -12t-18 -7.5t-19.5 1.5t-24.5 7.5q-38 25 -69 57q-35 -8 -75 -8h-10q31 -44 52 -61q67 -66 154 -102.5t183 -36.5q155 0 279 89t174 232v0q16 44 23 89l6 35q0 5 -11 11q-9 6 -21 4v0zM100 249
q19 -1 26 17.5t4.5 39.5t0.5 36q4 33 18 61t37.5 47.5t60.5 18.5t81 -28l16 -12q55 -32 100 -21q50 12 74.5 55.5t23.5 128.5q0 44 26.5 80.5t60.5 54t61 13.5l5 -0.5t13.5 1.5t16.5 5t14.5 12t7.5 21q1 14 -1.5 24.5t-6.5 14.5l-3 4q-1 0 -10.5 5.5t-18.5 9.5t-25.5 9.5
t-41 10.5t-54.5 9q-35 4 -59 4h-1q-98 0 -187.5 -38.5t-154 -103t-103 -153.5t-38.5 -187q0 -32 1.5 -53t7 -43t18 -32.5t30.5 -10.5v0z" />
    <glyph glyph-name="333333" unicode="&#xe62f;" 
d="M869 40q5 0 8.5 3.5t3.5 8.5v349q0 5 -3.5 8.5t-8.5 3.5h-337q-5 0 -8.5 -3.5t-3.5 -8.5v-349q0 -5 3.5 -8.5t8.5 -3.5h337zM621 351h89q18 0 36 -4t31 -12.5t21 -23t8 -36.5q0 -25 -8.5 -40t-23 -23.5t-33.5 -11.5t-40 -3h-33v-108h-47v262zM719 231q2 1 5 1t11.5 3
t15 7.5t11 14.5t3.5 22q-2 20 -16 29.5t-27 9.5l-14 -1h-30h-2.5t-4.5 0.5t-5 0.5t-2 -1v-86h55zM118 363l126 -93l20 -16l11 -24l56 -147l6 5l6 -13l29 22l11 162l109 83v93q0 5 4 9t9 4h186l1 49l111 85l65 49q16 12 20 34q6 29 -11 52q-1 0 -1.5 0.5t-0.5 1t-0.5 1
l-0.5 0.5q-17 24 -47 25q-22 2 -38 -10l-65 -49l-112 -85l-374 99l-59 -44l262 -182l-140 -107l-159 32l-29 -22l11 -9z" />
    <glyph glyph-name="yanchuicon" unicode="&#xe630;" 
d="M222 542v185q0 34 24 58t58 24h84q0 -48 34 -82t82 -34t82 34t34 82h84q34 0 58 -24t24 -58v-185h-564zM704 820h-96v-11q0 -43 -30.5 -73.5t-73.5 -30.5t-73.5 30.5t-30.5 73.5v11h-96q-39 0 -66 -27t-27 -66v-701q0 -39 27 -66.5t66 -27.5h96v12q0 43 30.5 73.5
t73.5 30.5t73.5 -30.5t30.5 -73.5v-12h96q39 0 66 27.5t27 66.5v701q0 39 -27 66t-66 27zM704 -44h-73q-5 48 -41 81.5t-86 33.5t-86 -33.5t-41 -81.5h-73q-29 0 -49.5 20.5t-20.5 49.5v505h34q5 0 8.5 3.5t3.5 8t-3.5 8t-8.5 3.5h-34v173q0 29 20.5 49.5t49.5 20.5h73
q5 -49 41 -82.5t86 -33.5t86 33.5t41 82.5h73q29 0 49.5 -20.5t20.5 -49.5v-173h-35q-4 0 -7.5 -3.5t-3.5 -8t3.5 -8t7.5 -3.5h35v-505q0 -29 -20.5 -49.5t-49.5 -20.5zM657 542.5q0 -4.5 -3.5 -8t-8.5 -3.5h-94q-5 0 -8.5 3.5t-3.5 8t3.5 8t8.5 3.5h94q5 0 8.5 -3.5t3.5 -8
zM468 542.5q0 -4.5 -3 -8t-8 -3.5h-94q-5 0 -8.5 3.5t-3.5 8t3.5 8t8.5 3.5h94q5 0 8 -3.5t3 -8zM351.5 104q-4.5 0 -8 3.5t-3.5 8.5v334q0 5 3.5 8t8 3t8 -3t3.5 -8v-334q0 -5 -3.5 -8.5t-8 -3.5zM656.5 104q-4.5 0 -8 3.5t-3.5 8.5v334q0 5 3.5 8t8 3t8 -3t3.5 -8v-334
q0 -5 -3.5 -8.5t-8 -3.5z" />
    <glyph glyph-name="dingzhi-dingzhi" unicode="&#xe63d;" 
d="M984 583q-16 38 -48.5 86t-61.5 77q-71 71 -163 110q-95 40 -199 40t-199 -40q-92 -39 -163 -110t-110 -163q-40 -95 -40 -199t40 -199q39 -92 110 -163t163 -110q95 -40 199 -40t199 40q92 39 163 110q29 29 61.5 77t48.5 86q40 95 40 199t-40 199zM512 -91
q-97 0 -185 37.5t-151.5 101t-101 151.5t-37.5 185t37.5 185t101 151.5t151.5 101t185 37.5t185 -37.5t151.5 -101t101 -151.5t37.5 -185t-37.5 -185t-101 -151.5t-151.5 -101t-185 -37.5zM727 608q-10 14 -30.5 23t-39.5 9h-290q-19 0 -39.5 -9t-30.5 -23l-93 -93
q-11 -15 -10.5 -35.5t12.5 -35.5l270 -299q15 -17 36 -17t35 17l271 299q12 15 12.5 35t-10.5 36zM515 608l120 -120h-246l120 120h6zM367 608h125l-118 -118l-29 113q12 5 22 5zM234 497l93 93q1 3 5 5l28 -107h-130v0v0q1 5 4 9zM512 178l-108 236q-4 8 -12 5t-5 -10
l106 -231l-259 285q-2 4 -4 9v0h136l6 -14q-1 -2 0 -4l3 -7q2 -5 8 -5h4q8 3 5 11l-1 1v4l-6 14h253zM789 463l-259 -287l127 296h137q-2 -5 -5 -9zM657 488l18 54q5 7 -2 11.5t-12 -2.5l-18 -54l-111 111h125q8 0 18 -3l-5 -21q-5 -7 2 -11q3 -2 7 -2q3 1 5 3l7 22
q4 -3 6 -6l93 -94q3 -3 4 -8h-137z" />
    <glyph glyph-name="zhoumoqunaer" unicode="&#xe631;" 
d="M209 563q-26 -43 -38 -92q25 -9 42 -35t17 -52t-17 -52t-42 -35q12 -49 38 -92q18 7 37 7q39 0 66.5 -27.5t27.5 -66.5q0 -16 -8 -35t-19.5 -30.5t-30.5 -19.5t-36 -8q-38 0 -65.5 27.5t-27.5 65.5q0 18 6 34q-18 28 -36 71t-25 75q-23 11 -39 36t-16 50t16 50t39 36
q7 32 25 75t36 71q-6 16 -6 34q0 38 27.5 65.5t65.5 27.5q18 0 34 -6q28 18 71 36t75 25q11 23 36 39t50 16t50 -16t36 -39q32 -7 75 -25t71 -36q16 6 34 6q38 0 65.5 -27.5t27.5 -65.5q0 -18 -6 -34q18 -28 36 -71t25 -75q23 -11 39 -36t16 -50t-16 -50t-39 -36
q-7 -32 -25 -75t-36 -71q6 -16 6 -33q0 -39 -27.5 -66.5t-66 -27.5t-66 27.5t-27.5 66t27.5 66t66.5 27.5q19 0 37 -7q26 43 38 92q-25 9 -42 35t-17 52t17 52t42 35q-12 49 -38 92q-18 -7 -37 -7q-39 0 -66.5 27.5t-27.5 66.5q0 19 7 37q-43 26 -92 38q-9 -25 -35 -42
t-52 -17t-52 17t-35 42q-49 -12 -92 -38q7 -18 7 -37q0 -39 -27.5 -66.5t-66.5 -27.5q-19 0 -37 7v0zM409 256v0q-25 21 -43 58.5t-18 69.5q0 68 48 116t116 48t116 -48t48 -116q0 -32 -17.5 -69.5t-43.5 -58.5v0q-11 -7 -11 -20q0 -10 7 -16.5t17 -6.5t17 7v0q32 26 55 74
t23 90v0q0 87 -62 149t-149 62t-149 -62t-62 -149v0q0 -42 23 -90t55 -74h1q6 -7 17 -7q9 0 16 6.5t7 16.5q0 13 -11 20zM486 177q11 16 26 16t26 -16l151 -224q11 -16 5 -27t-25 -11h-314q-19 0 -25 11t5 27z" />
    <glyph glyph-name="shangcheng" unicode="&#xe734;" 
d="M883 -128h-742q-13 0 -20.5 7.5t-7.5 20.5l61 717q0 9 8 16t18 7h629q10 0 18 -7.5t8 -18.5l51 -716q0 -13 -7 -21q0 -5 -16 -5zM169 -74h683l-43 663h-581zM169 -74zM732 691h-54q0 36 -12.5 64t-31.5 44.5t-42.5 27t-42.5 14.5t-34.5 4t-34.5 -4t-42.5 -14.5t-42.5 -27
t-31.5 -44.5t-12.5 -64h-54q0 44 14.5 79.5t37 58.5t51.5 38.5t57 22t55 6.5t55.5 -6.5t58.5 -22t53 -38.5t38 -58.5t15 -79.5zM732 691zM271 512q0 23 17.5 41t41.5 18t41.5 -17t17.5 -42q0 -23 -17 -41t-42 -18q-25 2 -42 19t-17 40zM643 512q0 23 17 41t41 18t41.5 -17
t17.5 -42q0 -23 -17 -41t-42 -18q-25 2 -41.5 19t-16.5 40v0z" />
    <glyph glyph-name="shouzhimingxi2" unicode="&#xe6d4;" 
d="M520.5 804q-116.5 0 -216 -58t-157 -157t-57.5 -216t57.5 -216t157 -157t216 -58t216 58t157 157t57.5 216t-57.5 216t-157 157t-216 58zM520.5 -17q-105.5 0 -195.5 52.5t-142 142t-52 195.5t52 195.5t142 142t195.5 52.5t195.5 -52.5t142 -142t52 -195.5t-52 -195.5
t-142 -142t-195.5 -52.5zM676 404h-137v23l145 122q5 5 5 12t-4.5 11.5t-10.5 4.5t-10 -4l-140 -119l-143 119q-4 3 -10 3t-10.5 -4.5t-4.5 -10.5q0 -7 5 -12l147 -122v-23h-139q-7 0 -11.5 -4.5t-4.5 -10.5t4.5 -10.5t11.5 -4.5h139v-62h-88q-7 0 -11.5 -4.5t-4.5 -10.5
t4.5 -10.5t11.5 -4.5h88l-1 -100q0 -13 15 -13v0q16 0 16 13v100h87q6 0 10.5 4.5t4.5 10.5t-4.5 10.5t-10.5 4.5h-87l1 62h137q6 0 10.5 4.5t4.5 10.5t-4.5 10.5t-10.5 4.5z" />
    <glyph glyph-name="sheying2" unicode="&#xe527;" 
d="M238 674q48 0 81.5 -34t33.5 -82t-33.5 -82t-81.5 -34t-82 34t-34 82t34 82t82 34zM237.5 732q-71.5 0 -122.5 -51t-51 -123t51 -122.5t122.5 -50.5t122.5 50.5t51 122.5t-51 123t-122.5 51zM611 731q59 0 100.5 -41.5t41.5 -100.5t-41.5 -101t-100.5 -42t-101 42
t-42 101t42 100.5t101 41.5zM611 788q-83 0 -141.5 -58.5t-58.5 -140.5q0 -83 58.5 -141.5t141.5 -58.5t141 58.5t58 141.5t-58 141t-141 58zM642 384q24 0 41 -17t17 -41v-231q0 -24 -17 -41t-41 -17h-462q-24 0 -41 17t-17 41v231q0 24 17 41t41 17h462zM642 442h-462
q-48 0 -82 -34t-34 -82v-231q0 -48 34 -82t82 -34h462q48 0 82 34t34 82v231q0 48 -34 82t-82 34zM931 24q-9 0 -19 6l-198 169q-11 9 -11 23q1 14 12 22l199 149q14 11 30 2.5t16 -25.5v-317q0 -19 -17 -26q-5 -3 -12 -3zM779 220l123 -105v197zM701 276h60v-114h-60v114z
" />
    <glyph glyph-name="wenquan" unicode="&#xe632;" 
d="M748 520zM513 -48q-207 0 -356 97q-74 48 -113.5 111t-39.5 133q0 86 59 160q57 71 155 117q8 4 17 1t12.5 -11t0.5 -17t-11 -13q-89 -42 -139 -105t-50 -132q0 -58 34.5 -111.5t98.5 -95.5q138 -89 332 -89t331 89q65 42 99.5 95.5t34.5 111.5q0 78 -62 146.5
t-169 108.5q-9 3 -12.5 11.5t-0.5 17t11.5 12.5t17.5 0q117 -44 186 -120q73 -81 73 -176q0 -70 -39.5 -132.5t-113.5 -111.5q-150 -97 -356 -97zM766 636q-19 0 -32.5 14t-13.5 33.5t13.5 33.5t32.5 14t32.5 -14t13.5 -33.5t-13.5 -33.5t-32.5 -14zM766 701q-7 0 -12 -5
t-5 -12.5t5 -12.5t12 -5t12 5t5 12.5t-5 12.5t-12 5zM236 641q-27 0 -46 19.5t-19 47t19 47t46 19.5t46 -19.5t19 -47t-19 -47t-46 -19.5zM235.5 744q-14.5 0 -25 -10.5t-10.5 -26t10.5 -26.5t25 -11t25 11t10.5 26.5t-10.5 26t-25 10.5zM616 713q-21 0 -35.5 15t-14.5 36.5
t15 36.5t35.5 15t35 -15t14.5 -36.5t-14.5 -36.5t-35.5 -15zM616.5 786q-8.5 0 -14.5 -6.5t-6 -15.5t6 -15t14.5 -6t14.5 6t6 15t-6 15.5t-14.5 6.5zM622 415q-13 0 -18 12q-2 7 -5 15t-9 32t-8 45t1 47.5t13 46.5q23 43 75 53q8 2 14.5 -2.5t8.5 -12.5t-2.5 -14.5
t-12.5 -8.5q-34 -7 -48 -33q-13 -20 -11 -54t7.5 -57.5t13.5 -41.5q3 -8 -0.5 -15.5t-10.5 -9.5q-4 -2 -8 -2zM403 400q-4 0 -7 1q-8 3 -11 10.5t0 15.5v0q7 18 12.5 41.5t7.5 57.5t-11 54q-14 26 -48 33q-8 2 -12.5 8.5t-2.5 14.5t8.5 12.5t14.5 2.5q52 -11 75 -53
q10 -20 13 -46.5t1 -47.5t-8 -45t-9 -32t-5 -15q-5 -12 -18 -12zM504 433q-15 0 -19 15q-1 7 -3.5 19t-4 41t1 56t14 58t32.5 53q6 5 14 5.5t14 -5t6 -14t-6 -14.5q-16 -17 -25 -44t-11 -48t0 -49t3.5 -33.5t3.5 -15.5q1 -8 -3 -14.5t-12 -8.5q-3 -1 -5 -1z" />
    <glyph glyph-name="52" unicode="&#xe68a;" 
d="M399 100q5 -18 25 -25q12 -4 24 -2q11 0 20 7q16 10 16 33v240q-73 -5 -138 -44q-125 61 -247 0q14 165 106 266t261 121l18 50h80l15 -50q172 -19 265 -120t107 -267q-122 61 -247 0q-64 38 -133 43v-240q0 -70 -54 -105q-26 -17 -59 -20q-32 -4 -61 6q-65 22 -81 86z
M705 381q8 3 29.5 10.5t32.5 11.5q-11 107 -59 160.5t-128 71.5q139 -94 125 -254zM184 406q14 1 42.5 4t42.5 5q12 21 49 91t57 108q-150 -35 -191 -208z" />
    </font>
</defs>
</svg>
